<svg width="48" height="48" viewBox="0 0 48 48" fill="none" xmlns="http://www.w3.org/2000/svg">
<path d="M35.1452 25.837C34.0348 24.8624 34.0348 23.1319 35.1452 22.1633L40.0001 17.9167C40.0001 17.9167 41.5003 16.8123 41.5003 14.7392C41.5003 12.2999 39.4862 10.6226 37.3836 10.6226C35.6058 10.6226 34.5486 11.7506 34.5486 11.7506L24.1065 21.6022C24.1065 21.6022 22.9606 22.5236 22.9606 24.0001C22.9606 25.4767 24.1065 26.3981 24.1065 26.3981L34.5486 36.2496C34.5486 36.2496 35.6058 37.3777 37.3836 37.3777C39.4921 37.3777 41.5003 35.7003 41.5003 33.2611C41.5003 31.188 40.0001 30.0835 40.0001 30.0835L35.1452 25.837Z" fill="#ADADAD"/>
<path d="M21.6674 28.1816L18.608 25.3348C17.8284 24.6084 17.8284 23.374 18.608 22.6475L21.6674 19.8007C23.3625 18.2001 23.4097 15.4715 21.7206 13.8177C20.1495 12.2762 17.6098 12.3294 15.9974 13.8295L7.47478 21.7498C6.87826 22.3168 6.50026 23.1141 6.50026 24C6.50026 24.886 6.87235 25.6774 7.46888 26.2444L15.9915 34.1587C17.6039 35.6589 20.1436 35.7061 21.7147 34.1705C23.4038 32.5168 23.3566 29.7881 21.6615 28.1875L21.6674 28.1816Z" fill="#ADADAD"/>
</svg>
