<svg width="48" height="48" viewBox="0 0 48 48" fill="none" xmlns="http://www.w3.org/2000/svg">
<g clip-path="url(#clip0_774_2423)">
<path d="M30.0742 17.3752L33.273 14.1763L33.4858 12.8292C27.6574 7.52705 18.3901 8.12801 13.134 14.0829C11.6747 15.7362 10.5907 17.7979 10.0142 19.9271L11.16 19.766L17.5591 18.7108L18.0537 18.2062C20.9003 15.0806 25.7122 14.6594 28.9988 17.3191L30.0742 17.3752Z" fill="#ADADAD"/>
<path d="M37.8306 19.8335C37.0945 17.1249 35.585 14.6909 33.486 12.8291L28.9961 17.319C30.8924 18.8688 31.9721 21.2022 31.9261 23.6505V24.447C34.1329 24.447 35.9228 26.2355 35.9228 28.4438C35.9228 30.6506 34.1329 32.396 31.9261 32.396H23.9225L23.1361 33.2485V38.0417L23.9225 38.7936H31.9261C37.6667 38.8382 42.3565 34.2664 42.401 28.5257C42.4298 25.0451 40.7132 21.783 37.8306 19.8335Z" fill="#ADADAD"/>
<path d="M15.9301 38.7937H23.9222V32.3946H15.9301C15.3608 32.3946 14.8087 32.2724 14.2912 32.0352L13.1568 32.3831L9.93499 35.5819L9.65464 36.6702C11.4618 38.036 13.6658 38.8023 15.9301 38.7937Z" fill="#ADADAD"/>
<path d="M15.9303 18.0379C10.1897 18.071 5.56321 22.7535 5.59771 28.4942C5.6164 31.7002 7.11447 34.7179 9.65485 36.6717L14.2914 32.0352C12.2801 31.1266 11.3858 28.7587 12.2944 26.7474C13.2031 24.7361 15.5709 23.8418 17.5808 24.7505C18.4678 25.1501 19.1766 25.8604 19.5777 26.7474L24.2143 22.1109C22.2418 19.5331 19.1766 18.025 15.9303 18.0379Z" fill="#ADADAD"/>
</g>
<defs>
<clipPath id="clip0_774_2423">
<rect width="36.8047" height="29.5875" fill="white" transform="translate(5.59767 9.2063)"/>
</clipPath>
</defs>
</svg>
