<svg width="48" height="48" viewBox="0 0 48 48" fill="none" xmlns="http://www.w3.org/2000/svg">
<path d="M42.25 27.1019C42.2011 25.5354 41.5972 24.0372 40.5461 22.8747C39.495 21.7122 38.0651 20.9609 36.5114 20.7549C36.4164 18.5657 35.4631 16.502 33.8577 15.0105C32.2524 13.519 30.1242 12.7197 27.9339 12.7858C26.1723 12.7673 24.448 13.293 22.9963 14.291C21.5446 15.289 20.4363 16.7108 19.8228 18.3622C17.9305 18.5821 16.1817 19.4794 14.8995 20.8883C13.6173 22.2972 12.8884 24.1226 12.8472 26.0272C12.9574 28.1321 13.8826 30.1114 15.4269 31.5459C16.9712 32.9804 19.0133 33.7575 21.1206 33.7124H35.68C37.4213 33.686 39.0832 32.9798 40.3108 31.7447C41.5384 30.5095 42.2343 28.8433 42.25 27.1019Z" fill="#ADADAD"/>
<path d="M35.9639 28.5011C35.9159 26.8926 35.2985 25.3533 34.2215 24.1575C33.1446 22.9617 31.6781 22.1871 30.0833 21.9717C29.9728 19.7322 28.9857 17.6261 27.3352 16.1084C25.6847 14.5907 23.5034 13.7833 21.2625 13.8605C19.4504 13.8217 17.6706 14.3447 16.1676 15.3576C14.6645 16.3706 13.5117 17.8239 12.8675 19.518C10.9475 19.754 9.17505 20.6684 7.86992 22.0962C6.56479 23.524 5.81293 25.3713 5.75 27.3047C5.8345 29.4815 6.77826 31.536 8.37458 33.0183C9.9709 34.5006 12.0896 35.2898 14.2667 35.213H29.1506C30.937 35.2029 32.6488 34.4956 33.9214 33.2419C35.1941 31.9882 35.9269 30.2872 35.9639 28.5011Z" fill="#7B7B7B"/>
<path d="M15.5239 24.7497H17.2475C17.3116 24.7484 17.3754 24.7603 17.4347 24.7847C17.494 24.8092 17.5476 24.8455 17.5922 24.8916L21.6478 28.9472C21.6963 28.9927 21.7349 29.0477 21.7614 29.1087C21.7878 29.1697 21.8014 29.2355 21.8014 29.3021C21.8014 29.3686 21.7878 29.4344 21.7614 29.4954C21.7349 29.5564 21.6963 29.6114 21.6478 29.6569L16.1322 35.0711C16.0869 35.1162 16.0332 35.152 15.974 35.1764C15.9148 35.2007 15.8515 35.2132 15.7875 35.213H14.145C14.0538 35.1982 13.9683 35.1586 13.8979 35.0987C13.8275 35.0387 13.7749 34.9607 13.7456 34.873C13.7164 34.7853 13.7117 34.6913 13.7321 34.6011C13.7524 34.5109 13.797 34.428 13.8611 34.3614L18.5453 29.6164C18.5932 29.5727 18.6316 29.5194 18.6578 29.4601C18.684 29.4007 18.6975 29.3365 18.6975 29.2716C18.6975 29.2068 18.684 29.1426 18.6578 29.0832C18.6316 29.0239 18.5932 28.9706 18.5453 28.9269L15.1792 25.5811C15.1109 25.513 15.0643 25.4262 15.0455 25.3316C15.0266 25.2371 15.0362 25.139 15.0731 25.05C15.1101 24.9609 15.1726 24.8848 15.2529 24.8313C15.3331 24.7779 15.4275 24.7495 15.5239 24.7497ZM22.4792 17.9161H24.2433C24.375 17.9233 24.4986 17.9815 24.5881 18.0783L27.6906 21.2214C27.7359 21.2666 27.7719 21.3203 27.7965 21.3795C27.8211 21.4386 27.8337 21.502 27.8337 21.5661C27.8337 21.6301 27.8211 21.6936 27.7965 21.7527C27.7719 21.8119 27.7359 21.8656 27.6906 21.9108L23.635 25.7839C23.5897 25.829 23.5359 25.8648 23.4768 25.8892C23.4176 25.9135 23.3543 25.926 23.2903 25.9258H21.81C21.7158 25.9213 21.6246 25.8906 21.5469 25.8372C21.4691 25.7837 21.4078 25.7096 21.3699 25.6232C21.3319 25.5368 21.3189 25.4415 21.3322 25.3481C21.3454 25.2547 21.3845 25.1668 21.445 25.0944L24.5475 21.9716C24.6344 21.8779 24.6828 21.7548 24.6828 21.6269C24.6828 21.4991 24.6344 21.3759 24.5475 21.2822L22.1345 18.8489C22.0108 18.8031 21.9103 18.7102 21.8551 18.5904C21.8 18.4706 21.7947 18.3338 21.8404 18.2101C21.8861 18.0864 21.9791 17.9859 22.0989 17.9308C22.2187 17.8757 22.3555 17.8704 22.4792 17.9161ZM26.1089 26.0272H27.8325C27.9601 26.0344 28.0816 26.0844 28.1772 26.1691L30.712 28.7039C30.7989 28.7976 30.8472 28.9207 30.8472 29.0486C30.8472 29.1764 30.7989 29.2996 30.712 29.3933L27.0417 33.1041C26.9971 33.1502 26.9434 33.1866 26.8841 33.2111C26.8248 33.2355 26.7611 33.2474 26.697 33.2461H25.0342C24.9377 33.2463 24.8434 33.2179 24.7632 33.1644C24.6829 33.111 24.6204 33.0349 24.5834 32.9458C24.5465 32.8567 24.5368 32.7587 24.5557 32.6641C24.5746 32.5696 24.6211 32.4828 24.6895 32.4147L27.5689 29.4947C27.6558 29.401 27.7041 29.2778 27.7041 29.15C27.7041 29.0221 27.6558 28.899 27.5689 28.8053L25.7642 26.96C25.6989 26.897 25.6525 26.8171 25.6302 26.7292C25.6079 26.6413 25.6106 26.5489 25.638 26.4625C25.6654 26.376 25.7164 26.299 25.7853 26.24C25.8542 26.181 25.9382 26.1424 26.0278 26.1286L26.1089 26.0272Z" fill="white"/>
</svg>
