<svg width="48" height="48" viewBox="0 0 48 48" fill="none" xmlns="http://www.w3.org/2000/svg">
<path fill-rule="evenodd" clip-rule="evenodd" d="M8.06552 27.1355H7.66607L5.50073 22.261H6.73072L7.86975 25.1876L9.10171 22.261H10.2862L8.06552 27.1355Z" fill="#ADADAD"/>
<path fill-rule="evenodd" clip-rule="evenodd" d="M19.2349 27.0444V24.0485C19.2349 23.4197 18.9521 23.1033 18.3866 23.1033C18.2165 23.1033 18.0563 23.1527 17.9001 23.2516C17.7439 23.3525 17.6371 23.4652 17.5738 23.5937V27.0464H16.4565V23.8725C16.4565 23.6352 16.3834 23.4493 16.237 23.3109C16.0887 23.1705 15.8831 23.1013 15.6181 23.1013C15.4777 23.1013 15.3235 23.1527 15.1573 23.2556C14.9912 23.3584 14.8706 23.4691 14.7955 23.5917V27.0444H13.6782V22.2609H14.4494L14.6768 22.6702C14.9873 22.336 15.3887 22.1699 15.8811 22.1699C16.5198 22.1699 16.9964 22.34 17.3207 22.6821C17.4611 22.5259 17.6569 22.3993 17.908 22.3083C18.1592 22.2154 18.4103 22.1699 18.6614 22.1699C19.1973 22.1699 19.6126 22.3222 19.9072 22.6247C20.2039 22.9312 20.3541 23.3505 20.3541 23.8844V27.0444H19.2349Z" fill="#ADADAD"/>
<path fill-rule="evenodd" clip-rule="evenodd" d="M26.9112 23.1586H26.3516V22.2609H26.9112V21.2939L28.0265 20.8826V22.2609H29.3495V23.1586H28.0265V25.2508C28.0265 25.5949 28.0799 25.8361 28.1887 25.9785C28.2975 26.1209 28.4853 26.1901 28.7543 26.1901C29.0232 26.1901 29.2743 26.1169 29.5077 25.9726V27.0048C29.2486 27.0899 28.8769 27.1334 28.3983 27.1334C27.9198 27.1334 27.5539 26.9989 27.2949 26.7319C27.0398 26.461 26.9112 26.0794 26.9112 25.581V23.1586Z" fill="#ADADAD"/>
<path fill-rule="evenodd" clip-rule="evenodd" d="M31.2513 20.4041C31.4313 20.4041 31.5835 20.4673 31.7101 20.5919C31.8366 20.7204 31.8999 20.8727 31.8999 21.0527C31.8999 21.2326 31.8366 21.3849 31.7101 21.5134C31.5835 21.638 31.4313 21.7013 31.2513 21.7013C31.0714 21.7013 30.9211 21.638 30.7906 21.5134C30.664 21.3849 30.6027 21.2326 30.6027 21.0527C30.6027 20.8747 30.666 20.7204 30.7906 20.5919C30.9191 20.4673 31.0714 20.4041 31.2513 20.4041ZM30.6818 27.0444V23.1844H30.0668V22.2609H31.809V27.0444H30.6818Z" fill="#ADADAD"/>
<path fill-rule="evenodd" clip-rule="evenodd" d="M41.3819 27.0442V24.2797C41.3819 23.8723 41.3048 23.5737 41.1466 23.3839C40.9903 23.196 40.7313 23.1011 40.3773 23.1011C40.2112 23.1011 40.0352 23.1486 39.8493 23.2415C39.6615 23.3344 39.5171 23.4491 39.4103 23.5856V27.0442H38.295V22.2607H39.1019L39.3075 22.7076C39.612 22.3477 40.0609 22.1677 40.6561 22.1677C41.2257 22.1677 41.6765 22.3378 42.0068 22.6779C42.337 23.018 42.4992 23.4966 42.4992 24.1096V27.0442H41.3819Z" fill="#ADADAD"/>
<path fill-rule="evenodd" clip-rule="evenodd" d="M12.5877 23.9497C12.5877 15.5632 8.06522 10.8845 8.06522 10.8845C8.06522 10.8845 10.808 17.2915 10.808 23.8963V24.1C10.808 30.7087 8.06522 37.1157 8.06522 37.1157C8.06522 37.1157 12.5877 32.435 12.5877 24.0505V23.9497Z" fill="#ADADAD"/>
<path fill-rule="evenodd" clip-rule="evenodd" d="M22.0229 24.5132C22.0229 23.8487 22.2701 22.6168 23.4625 22.6168C24.6569 22.6168 24.9021 23.8487 24.9021 24.5132C24.9021 25.1776 24.6549 26.4076 23.4625 26.4076C22.2701 26.4076 22.0229 25.1756 22.0229 24.5132ZM21.1607 24.5132C21.1607 25.7926 21.8805 27.1294 23.4645 27.1294C25.0465 27.1294 25.7683 25.7926 25.7683 24.5132C25.7683 23.2337 25.0485 21.897 23.4645 21.897C21.8805 21.897 21.1607 23.2337 21.1607 24.5132Z" fill="#ADADAD"/>
<path fill-rule="evenodd" clip-rule="evenodd" d="M33.46 24.5132C33.46 23.8487 33.7071 22.6168 34.8996 22.6168C36.0939 22.6168 36.3392 23.8487 36.3392 24.5132C36.3392 25.1776 36.092 26.4076 34.8996 26.4076C33.7052 26.4076 33.46 25.1756 33.46 24.5132ZM32.5958 24.5132C32.5958 25.7926 33.3156 27.1294 34.8996 27.1294C36.4815 27.1294 37.2033 25.7926 37.2033 24.5132C37.2033 23.2337 36.4835 21.897 34.8996 21.897C33.3176 21.897 32.5958 23.2337 32.5958 24.5132Z" fill="#ADADAD"/>
</svg>
