<svg width="48" height="48" viewBox="0 0 48 48" fill="none" xmlns="http://www.w3.org/2000/svg">
<g clip-path="url(#clip0_774_2360)">
<path d="M29.3032 10.4463L35.152 13.7935V16.2939L36.6065 17.0794V24.4782L35.152 25.2636V27.9303L37.5762 29.2394L40.0004 27.8818V25.2636L37.5762 23.9545V17.603L40.0004 16.2455V13.6758L37.5762 12.3182L36.0069 13.1656L29.3338 9.34654V7.85758L27.152 6.5L24.9701 7.80909V10.4758L27.152 11.7848L29.3032 10.4463Z" fill="#ADADAD"/>
<path d="M10.9091 17.3412V24.2164L12.8485 25.2636V27.9303L10.4242 29.2394L8 27.8818V25.2636L9.45455 24.4782V17.06L8 16.2455V13.6758L10.4242 12.3182L12.062 13.2026L17.697 9.97765V7.85758L20.1212 6.5L22.5455 7.80909V10.4758L20.1212 11.7848L18.2866 10.7575L12.8485 13.8697V16.2939L10.9091 17.3412Z" fill="#ADADAD"/>
<path d="M26.2312 37.783L32.0815 34.5158L34.0372 35.6393L36.316 34.3787L36.3645 31.7121L34.0857 30.3545L31.7585 31.6636V33.5855L25.5595 37.0474L23.9524 36.1242L21.8666 37.3224L16.25 34.0029L16.2918 31.6636L14.013 30.3545L11.6857 31.6636V34.3302L13.9645 35.6393L15.5908 34.7397L21.6736 38.3347V40.0999L23.9524 41.409L26.2312 40.0999V37.783Z" fill="#ADADAD"/>
<path d="M15.3216 17.894V27.9789L23.9519 32.9243L32.4368 28.1243L32.5822 18.0395L24.0004 12.9971L15.3216 17.894Z" fill="#ADADAD"/>
<path d="M23.9034 29.7244L18.0367 26.3305L18.0852 19.4941L24.0004 16.1487L29.8186 19.5911L29.7216 26.4275L23.9034 29.7244ZM18.6186 25.9911L23.9034 29.0457L29.0913 26.0881L29.1883 19.9305L23.9519 16.876L18.667 19.8335L18.6186 25.9911Z" fill="white"/>
</g>
<defs>
<clipPath id="clip0_774_2360">
<rect width="32" height="35" fill="white" transform="translate(8 6.5)"/>
</clipPath>
</defs>
</svg>
