<svg width="48" height="48" viewBox="0 0 48 48" fill="none" xmlns="http://www.w3.org/2000/svg">
<g clip-path="url(#clip0_774_2383)">
<path fill-rule="evenodd" clip-rule="evenodd" d="M14.63 6.5C13.2345 6.5 12.0941 7.64035 12.0941 9.02791V27.7679C12.0941 29.1715 13.2345 30.3038 14.63 30.3038H33.37C34.7656 30.3038 35.9059 29.1715 35.9059 27.7679V9.02791C35.9059 7.63238 34.7656 6.5 33.37 6.5H14.63ZM13.5136 27.7679V9.02791C13.5136 8.41388 14.008 7.91946 14.622 7.91946H33.3621C33.9761 7.91946 34.4705 8.41388 34.4705 9.02791V27.7679C34.4705 28.382 33.9681 28.8844 33.3621 28.8844H14.622C14.016 28.8844 13.5136 28.382 13.5136 27.7679Z" fill="#ADADAD"/>
<path fill-rule="evenodd" clip-rule="evenodd" d="M20.2201 12.0979C18.8246 12.0979 17.6922 13.2303 17.6922 14.6258V33.3658C17.6922 34.7614 18.8246 35.8938 20.2201 35.8938H38.9601C40.3557 35.8938 41.4881 34.7614 41.4881 33.3658V14.6258C41.4881 13.2383 40.3557 12.0979 38.9601 12.0979H20.2201ZM19.1117 33.3658V14.6258C19.1117 14.0118 19.6141 13.5174 20.2201 13.5174H38.9601C39.5742 13.5174 40.0686 14.0118 40.0686 14.6258V33.3658C40.0686 33.9799 39.5742 34.4743 38.9601 34.4743H20.2201C19.6141 34.4823 19.1117 33.9879 19.1117 33.3658Z" fill="#ADADAD"/>
<path fill-rule="evenodd" clip-rule="evenodd" d="M9.03191 17.6963C7.63637 17.6963 6.504 18.8366 6.504 20.2242V38.9642C6.504 40.3677 7.63637 41.4921 9.03191 41.4921H27.7719C29.1675 41.4921 30.2999 40.3598 30.2999 38.9642V20.2242C30.2999 18.8287 29.1675 17.6963 27.7719 17.6963H9.03191ZM7.92346 38.9642V20.2242C7.92346 19.6181 8.41787 19.1157 9.03191 19.1157H27.7719C28.386 19.1157 28.8804 19.6181 28.8804 20.2242V38.9642C28.8804 39.5783 28.378 40.0727 27.7719 40.0727H9.03191C8.41787 40.0807 7.92346 39.5783 7.92346 38.9642Z" fill="#ADADAD"/>
</g>
<defs>
<clipPath id="clip0_774_2383">
<rect width="34.992" height="35" fill="white" transform="translate(6.504 6.5)"/>
</clipPath>
</defs>
</svg>
