<svg width="48" height="48" viewBox="0 0 48 48" fill="none" xmlns="http://www.w3.org/2000/svg">
<g clip-path="url(#clip0_774_2402)">
<path d="M17.5001 26.969L12.6789 16.1472C9.8561 18.4971 8.2253 21.981 8.2288 25.6539C8.2288 32.4936 13.7744 38.0383 20.6133 38.0383C21.201 38.0383 21.7882 37.9964 22.3703 37.9139L17.5652 27.1196C17.5438 27.0685 17.5202 27.0201 17.5001 26.969ZM20.6141 6.50123C19.0702 6.49949 17.5316 6.68505 16.0326 7.054L18.8541 13.3956C19.437 13.313 20.0251 13.2716 20.6137 13.2711C27.4535 13.2711 32.9951 18.8141 32.9951 25.6526C32.9995 29.3259 31.3687 32.811 28.5455 35.1614L31.3683 41.5008C36.4366 38.058 39.7663 32.2465 39.7663 25.6543C39.7659 15.077 31.1906 6.50123 20.6141 6.50123Z" fill="#ADADAD"/>
</g>
<defs>
<clipPath id="clip0_774_2402">
<rect width="31.5375" height="35" fill="white" transform="translate(8.23123 6.5)"/>
</clipPath>
</defs>
</svg>
