<svg width="48" height="48" viewBox="0 0 48 48" fill="none" xmlns="http://www.w3.org/2000/svg">
<path d="M41.4999 6.5H6.49991V41.5H41.4999V6.5Z" fill="#ADADAD"/>
<path d="M9.82475 34.9373H22.9498V37.1248H9.82475V34.9373ZM19.1873 13.6748V11.0498H12.0123V13.6748H14.0248V22.8623H12.0123V25.5748H19.1873V22.8623H17.1748V13.6748H19.1873ZM26.1873 25.7498C25.1883 25.7948 24.1944 25.584 23.2998 25.1373C22.5678 24.7334 21.9155 24.1997 21.3748 23.5623L23.3873 21.2873C23.7507 21.6865 24.1621 22.0392 24.6123 22.3373C25.0358 22.5856 25.5217 22.707 26.0123 22.6873C26.5517 22.7285 27.0764 22.4989 27.4123 22.0748C27.8175 21.5528 28.0056 20.8945 27.9373 20.2373V10.8748H31.1748V20.3248C31.208 21.0987 31.089 21.8716 30.8248 22.5998C30.5939 23.3385 30.1712 24.0027 29.5998 24.5248C28.6081 25.261 27.4207 25.6872 26.1873 25.7498Z" fill="white"/>
</svg>
