<svg width="48" height="48" viewBox="0 0 48 48" fill="none" xmlns="http://www.w3.org/2000/svg">
<path d="M13.8926 31.9105C13.8926 31.8219 14.9513 29.9702 14.9513 29.9702C15.1777 29.8903 15.4391 29.8444 15.7104 29.8444C16.429 29.8444 17.0732 30.1659 17.5063 30.6723L17.5085 30.6756C16.9977 31.602 16.5012 32.3808 15.9619 33.1256L16.009 33.0567C15.7716 33.2963 15.4424 33.445 15.0782 33.445C14.9699 33.445 14.866 33.4319 14.7654 33.4078L14.7741 33.41C14.2338 33.3094 13.8313 32.8412 13.8313 32.2802C13.8313 32.1478 13.8532 32.0209 13.8947 31.9028L13.8926 31.9105ZM10.0994 17.1809V31.9991C10.1235 34.6689 12.2815 36.8258 14.948 36.8498H15.7443C15.7443 36.7612 16.803 34.9095 19.0955 31.0289C19.3602 30.4995 19.7124 29.9702 20.0657 29.3533H13.6268C13.6049 29.3544 13.5787 29.3555 13.5524 29.3555C12.953 29.3555 12.4499 28.9464 12.3055 28.3919L12.3033 28.3831C12.2749 28.2836 12.2585 28.1698 12.2585 28.0517C12.2585 27.3572 12.8207 26.795 13.5152 26.795C13.5229 26.795 13.5305 26.795 13.5393 26.795H16.8019L20.9472 19.562C20.9472 19.562 19.9771 17.7978 19.7124 17.357C19.591 17.1634 19.5188 16.9283 19.5188 16.6756C19.5188 16.3223 19.6599 16.003 19.8896 15.7689C20.419 15.2395 21.3005 14.9748 22.1832 16.3858L22.5365 16.9152L22.8897 16.3858C23.6838 15.2395 24.2132 15.327 24.654 15.4156C25.3594 15.5917 25.8002 16.3858 25.1833 17.6206L19.7146 26.7939H21.5674C22.1843 25.7352 22.8022 24.6775 23.4202 23.5302C23.3458 23.248 23.3032 22.9242 23.3032 22.5906C23.3032 22.4244 23.3141 22.2603 23.3349 22.0995L23.3327 22.1181C23.4497 21.3984 23.7647 20.7662 24.2176 20.262L24.2143 20.2653L24.7437 21.1469C25.8199 19.3903 26.9115 17.3056 27.8674 15.1488L28.0063 14.7966C28.1802 14.3394 28.2819 13.81 28.2819 13.2577C28.2819 12.9284 28.2458 12.6069 28.178 12.2973L28.1835 12.3269H14.9535C14.9491 12.3269 14.9447 12.3269 14.9393 12.3269C12.2672 12.3269 10.1016 14.4925 10.1016 17.1645C10.1016 17.17 10.1016 17.1744 10.1016 17.1798V17.1787L10.0994 17.1809ZM35.5018 17.0923V31.998C35.5018 32.0013 35.5018 32.0056 35.5018 32.0089C35.5018 35.1688 32.9402 37.7303 29.7804 37.7303C29.776 37.7303 29.7727 37.7303 29.7683 37.7303H23.8588C23.8588 37.7303 23.3294 39.1413 25.0051 39.1413H30.2966C30.301 39.1413 30.3065 39.1413 30.3108 39.1413C33.9071 39.1413 36.823 36.2253 36.823 32.6291C36.823 32.6236 36.823 32.6192 36.823 32.6138V19.6495C36.9116 18.4147 35.8529 17.6206 35.5007 17.0912L35.5018 17.0923ZM15.3035 37.7314H14.8627C14.8594 37.7314 14.8551 37.7314 14.8518 37.7314C11.6919 37.7314 9.13037 35.1698 9.13037 32.01C9.13037 32.0056 9.13037 32.0023 9.13037 31.998V17.1809C9.13037 17.1777 9.13037 17.1733 9.13037 17.17C9.13037 14.0102 11.6919 11.4486 14.8518 11.4486C14.8562 11.4486 14.8594 11.4486 14.8638 11.4486H27.6519C27.0744 11.0538 26.3602 10.8175 25.5913 10.8175C25.4786 10.8175 25.3671 10.823 25.2566 10.8328L25.2708 10.8317C25.086 10.8667 24.8738 10.8875 24.6572 10.8875C24.2121 10.8875 23.7866 10.8022 23.3962 10.6469L23.4191 10.6545C22.8897 10.2137 22.9783 9.94906 22.1843 9.94906H14.3344C14.3301 9.94906 14.3246 9.94906 14.3191 9.94906C10.7229 9.94906 7.80694 12.865 7.80694 16.4613C7.80694 16.4667 7.80694 16.4711 7.80694 16.4766V16.4755V32.5284C7.80584 32.5722 7.80475 32.6236 7.80475 32.6761C7.80475 36.0798 10.5063 38.8525 13.8816 38.9673H13.8926C14.7741 38.9673 15.0388 38.2608 15.3035 37.7314ZM28.7107 26.795H30.8271C32.238 26.795 32.5027 27.5005 32.5027 27.7652C32.5913 28.4706 32.238 29.3533 30.8271 29.3533H29.5036L30.5624 31.1175C31.1793 32.1763 30.9157 32.7056 30.5624 33.0578C30.313 33.2645 29.9893 33.3892 29.636 33.3892C29.0136 33.3892 28.4821 32.9988 28.2721 32.4497L28.2688 32.4398L27.034 30.3234C26.1524 32.2638 25.2697 34.3802 24.211 36.8498H29.6797C32.3496 36.8258 34.5065 34.6678 34.5305 32.0013V16.5641C34.4419 16.388 34.2658 16.4755 34.1772 16.5641C32.1133 19.5139 30.2769 22.8827 28.8321 26.4516L28.7107 26.795ZM33.6501 14.8873C33.9858 14.7058 34.384 14.5986 34.8083 14.5986C34.9286 14.5986 35.0468 14.6073 35.1627 14.6238L35.1496 14.6227C35.6932 14.8097 36.1449 15.1477 36.4676 15.5852L36.473 15.5928C36.8799 16.1452 37.4574 16.5509 38.1279 16.7347L38.1497 16.7402C38.503 16.8288 39.1199 15.8586 39.5607 14.9759C39.9293 14.3711 40.1557 13.6437 40.1776 12.865V12.8584C39.7444 12.4713 39.2063 12.1913 38.6113 12.0688L38.5894 12.0655C38.3411 12.1311 38.0568 12.1694 37.7626 12.1694C37.6499 12.1694 37.5383 12.1639 37.429 12.153L37.4432 12.1541C36.7596 11.9156 36.2061 11.4475 35.8627 10.8448L35.8551 10.8306C35.2458 10.053 34.4791 9.42734 33.5997 8.99531L33.5615 8.97891C32.7444 8.57969 31.7961 8.27234 30.8008 8.105L30.7396 8.09625C29.753 7.79219 28.6188 7.61719 27.4441 7.61719C27.1138 7.61719 26.7868 7.63141 26.463 7.65766L26.5057 7.65437C25.6033 7.71344 24.7612 7.87094 23.9572 8.11594L24.036 8.09516C23.9474 8.09516 23.7713 8.35984 23.9474 8.35984C24.1235 8.35984 24.7415 8.44844 24.7415 8.44844C24.7415 8.44844 23.9474 8.62453 23.9474 8.80172C23.9474 8.97891 24.036 8.97781 24.1235 8.97781C24.211 8.97781 26.1524 8.88922 26.9465 8.97781C28.0019 9.15281 28.8846 9.77406 29.4074 10.6381L29.4161 10.6534C29.8405 11.3994 30.0899 12.293 30.0899 13.2445C30.0899 13.8975 29.9718 14.5231 29.7574 15.1006L29.7694 15.0634C28.446 17.9739 17.9504 35.8786 17.421 37.1134C16.8916 38.3483 16.7155 39.1423 18.2151 39.9364C19.7146 40.7305 20.5087 40.3772 20.9494 39.8478C21.4788 39.1423 30.5635 16.3858 33.6501 14.8873Z" fill="#ADADAD"/>
</svg>
