<svg width="48" height="48" viewBox="0 0 48 48" fill="none" xmlns="http://www.w3.org/2000/svg">
<path fill-rule="evenodd" clip-rule="evenodd" d="M20.6431 6.02759H27.3931V9.32759H29.1931C30.0931 9.32759 30.6931 9.92759 30.6931 10.8276V17.7276L29.7931 18.9276L39.0931 35.1276L40.4431 40.9776C40.5931 41.7276 39.6931 42.3276 39.0931 41.7276L34.7431 37.6776L31.7431 32.4276C29.3431 33.7776 26.7931 34.5276 23.9431 34.5276C21.0931 34.5276 18.5431 33.7776 16.2931 32.4276L13.2931 37.6776L8.9431 41.7276C8.3431 42.3276 7.2931 41.7276 7.5931 40.9776L8.9431 35.1276L12.3931 28.9776C10.1431 26.4276 8.9431 22.9776 8.9431 19.3776C8.9431 18.7776 8.9431 18.1776 9.0931 17.7276H13.5931C13.4431 18.3276 13.4431 18.7776 13.4431 19.3776C13.4431 21.3276 14.0431 23.1276 14.9431 24.7776L18.3931 18.9276L17.4931 17.7276V10.8276C17.4931 9.92759 18.0931 9.32759 18.9931 9.32759H20.7931V6.02759H20.6431ZM21.5431 23.1276L18.5431 28.5276C20.1931 29.4276 21.9931 30.0276 23.9431 30.0276C25.8931 30.0276 27.8431 29.4276 29.3431 28.5276L26.1931 23.1276L24.9931 24.6276C24.3931 25.3776 23.1931 25.3776 22.5931 24.6276L21.5431 23.1276ZM21.0931 17.7276C21.6931 18.7776 22.7431 19.3776 23.9431 19.3776C25.1431 19.3776 26.3431 18.7776 26.7931 17.7276C27.0931 17.2776 27.2431 16.6776 27.2431 16.0776C27.2431 14.2776 25.7431 12.7776 23.9431 12.7776C22.1431 12.7776 20.6431 14.2776 20.6431 16.0776C20.6431 16.6776 20.7931 17.2776 21.0931 17.7276Z" fill="#ADADAD"/>
</svg>
