<svg width="48" height="48" viewBox="0 0 48 48" fill="none" xmlns="http://www.w3.org/2000/svg">
<g clip-path="url(#clip0_774_2205)">
<path d="M16.1441 28.5166H10.7956C11.5037 30.9459 12.8179 33.1231 14.7418 35.0473C17.809 38.1148 21.4971 39.6465 25.81 39.6465C26.6722 39.6465 27.5075 39.5823 28.3188 39.4599C31.5674 38.9696 34.4116 37.5009 36.8486 35.0473C38.7849 33.1237 40.1083 30.9459 40.8219 28.5166H38.6514H35.4776H16.1441Z" fill="#ADADAD"/>
<path d="M13.2044 21.2502H10.4103C10.3081 21.8642 10.2385 22.4909 10.2069 23.1336H13.5276H15.1935H39.2385H41.4333C41.4014 22.4909 41.3318 21.8642 41.2286 21.2502" fill="#ADADAD"/>
<path d="M10.2069 24.8818C10.2385 25.5248 10.3078 26.1516 10.4103 26.7652H13.3152H15.5171H39.0424H41.2292C41.3321 26.1516 41.4024 25.5248 41.4343 24.8818" fill="#ADADAD"/>
<path d="M40.8231 19.5027C40.1102 17.0667 38.7864 14.8793 36.8491 12.9416C34.4186 10.5111 31.5823 9.05287 28.3443 8.56222C27.5253 8.43797 26.6816 8.3728 25.8106 8.3728C21.4976 8.3728 17.8092 9.89616 14.7423 12.9416C12.8178 14.8793 11.503 17.0667 10.7951 19.5027" fill="#ADADAD"/>
<path d="M9.26846 24.0101C9.26846 15.7611 15.4638 8.90714 23.5233 7.70161C23.3234 7.69427 23.1224 7.68628 22.9206 7.68628C13.8762 7.68628 6.54373 14.9948 6.54373 24.0101C6.54373 33.0257 13.8759 40.3339 22.9206 40.3339C23.1231 40.3339 23.324 40.3262 23.5246 40.3189C15.4638 39.1134 9.26846 32.2594 9.26846 24.0101Z" fill="#ADADAD"/>
<path d="M36.438 23.1348C36.3857 22.4893 36.277 21.8597 36.1148 21.2515H15.5084C15.3461 21.8593 15.2372 22.4889 15.1848 23.1348H36.438Z" fill="#ADADAD"/>
<path d="M36.4378 24.884H15.1849C15.2373 25.5296 15.3456 26.1592 15.5082 26.7674H36.1149C36.2772 26.1592 36.3854 25.5296 36.4378 24.884Z" fill="#ADADAD"/>
<path d="M25.8116 34.6753C30.091 34.6753 33.7797 32.154 35.4785 28.5164H16.1447C17.8434 32.154 21.5322 34.6753 25.8116 34.6753Z" fill="#7B7B7B"/>
<path d="M13.6188 24.884H15.1788H36.4867H39.2859H41.4123C41.427 24.6057 41.4353 24.3256 41.4353 24.0435C41.4353 23.7385 41.4241 23.436 41.4069 23.1348H39.2856H36.4864H15.1785H13.5082H10.2069C10.1897 23.4357 10.1785 23.7385 10.1785 24.0435C10.1785 24.3256 10.1868 24.6057 10.2015 24.884H13.6188Z" fill="white"/>
<path d="M16.0833 19.502H10.7961C10.6224 20.0715 10.5102 20.6557 10.4026 21.2511H13.1257H15.4445H36.1049H39.0308H41.1221C41.0142 20.6561 40.8752 20.0718 40.7018 19.502" fill="white"/>
<path d="M39.1139 26.7651H36.1879H15.5278H13.3199H10.4026C10.5074 27.3602 10.6265 27.9442 10.7974 28.5143H16.1661H35.5497H38.7318H40.8043C40.9749 27.9445 41.1126 27.3606 41.2176 26.7651H39.1139Z" fill="white"/>
</g>
<defs>
<clipPath id="clip0_774_2205">
<rect width="35" height="32.8125" fill="white" transform="translate(6.5001 7.59375)"/>
</clipPath>
</defs>
</svg>
