<svg width="48" height="48" viewBox="0 0 48 48" fill="none" xmlns="http://www.w3.org/2000/svg">
<g clip-path="url(#clip0_774_2199)">
<path d="M7.19796 19.0115C7.19796 19.0115 6.35425 18.4033 7.3667 17.5913L9.72558 15.482C9.72558 15.482 10.4006 14.7719 11.1142 15.3906L32.882 31.8711V39.7739C32.882 39.7739 32.8714 41.0148 31.2789 40.8777L7.19796 19.0115Z" fill="#ADADAD"/>
<path d="M12.8087 24.1057L7.19801 29.2067C7.19801 29.2067 6.62148 29.6355 7.19801 30.4019L9.80298 32.7713C9.80298 32.7713 10.4217 33.4358 11.3357 32.6799L17.2839 28.1696L12.8087 24.1057Z" fill="#7B7B7B"/>
<path d="M22.659 24.1477L32.9487 16.2906L32.8819 8.43002C32.8819 8.43002 32.4425 6.71448 30.9766 7.6074L17.2838 20.0697L22.659 24.1477Z" fill="#7B7B7B"/>
<path d="M31.2789 40.8885C31.8765 41.5002 32.6007 41.2998 32.6007 41.2998L40.6195 37.3484C41.646 36.6488 41.5018 35.7805 41.5018 35.7805V12.1847C41.5018 11.1476 40.4402 10.789 40.4402 10.789L33.4901 7.43878C31.9714 6.50015 30.9765 7.60753 30.9765 7.60753C30.9765 7.60753 32.2562 6.68647 32.8819 8.43015V39.6299C32.8819 39.8444 32.8362 40.0553 32.7448 40.2451C32.562 40.6143 32.1648 40.9588 31.2121 40.8146L31.2789 40.8885Z" fill="#7B7B7B"/>
</g>
<defs>
<clipPath id="clip0_774_2199">
<rect width="35.6416" height="35" fill="white" transform="translate(6.17922 6.49976)"/>
</clipPath>
</defs>
</svg>
