<svg width="48" height="48" viewBox="0 0 48 48" fill="none" xmlns="http://www.w3.org/2000/svg">
<path d="M34.3315 7H14.3337L6 20.3339L9.33348 42H15.2702L14.8531 36.9998H17.7695L18.1866 42H30.4771L30.8941 36.9998H33.8106L33.3935 42H39.3302L42.6652 20.3339L34.3315 7ZM34.3315 33.6663H14.3337L12.667 20.3339L16.0004 13.667H21.3566L20.9991 16.1663H27.6661L27.3086 13.667H32.6648L35.9983 20.3339L34.3315 33.6663ZM29.7484 23.041C30.2082 23.041 30.581 24.4282 30.581 26.1408C30.581 27.8533 30.2082 29.2405 29.7484 29.2405C29.2885 29.2405 28.9158 27.8533 28.9158 26.1408C28.9158 24.4297 29.2885 23.041 29.7484 23.041ZM19.2285 23.3007C19.6883 23.3007 20.0611 24.6879 20.0611 26.4005C20.0611 28.1131 19.6883 29.5002 19.2285 29.5002C18.7687 29.5002 18.3959 28.1131 18.3959 26.4005C18.3959 24.6879 18.7687 23.3007 19.2285 23.3007Z" fill="#ADADAD"/>
</svg>
