<svg width="48" height="48" viewBox="0 0 48 48" fill="none" xmlns="http://www.w3.org/2000/svg">
<path d="M40.4283 17.2474L40.2795 16.9116L40.0291 17.1839C39.4373 17.8621 38.6805 18.3816 37.8372 18.6944L37.602 18.7852L37.6994 19.0127C38.4223 20.7507 38.7986 22.6133 38.7931 24.4935C38.7931 32.3772 32.3837 38.7921 24.4945 38.7921C16.6053 38.7921 10.2014 32.3827 10.2014 24.4989C10.2014 16.6152 16.6228 10.2003 24.5 10.2003C26.6427 10.2003 28.7044 10.663 30.6239 11.5796L30.8514 11.6878L30.9487 11.4647C31.302 10.6335 31.8544 9.9105 32.5598 9.34613L32.8453 9.11316L32.5205 8.94253C30.0431 7.66066 27.2913 6.99456 24.5 7.00003C14.8498 7.00003 7 14.8499 7 24.5C7 34.1557 14.8498 42 24.5 42C34.1556 42 42 34.1557 42 24.5C42 21.9768 41.4761 19.5388 40.4283 17.2474ZM24.5 16.5244C20.0955 16.5299 16.5298 20.0955 16.5244 24.5C16.5298 28.9046 20.0955 32.4702 24.5 32.4757C28.9045 32.4702 32.4702 28.9046 32.4756 24.5C32.4702 20.0955 28.9045 16.5299 24.5 16.5244ZM39.585 13.5964C39.585 15.6078 37.9564 17.2321 35.9505 17.2321C33.9391 17.2321 32.3094 15.6078 32.3094 13.5964C32.3094 8.74894 39.585 8.74894 39.585 13.5964Z" fill="#ADADAD"/>
</svg>
