<svg width="48" height="48" viewBox="0 0 48 48" fill="none" xmlns="http://www.w3.org/2000/svg">
<g clip-path="url(#clip0_11470_11478)">
<path d="M38.5095 9.4905C40.1086 11.0896 40.9388 13.0926 40.9995 15.4999V32.5C40.9388 34.9066 40.1087 36.9103 38.5095 38.5094C36.9104 40.1084 34.9067 40.9386 32.4996 40.9999H15.4999C13.0926 40.9388 11.0896 40.1086 9.4905 38.5094C7.89144 36.9104 7.06109 34.9067 7 32.5001V15.5C7.06109 13.0928 7.8913 11.0897 9.4905 9.49063C11.0896 7.89144 13.0926 7.06109 15.4999 7H32.4996C34.9067 7.06109 36.9104 7.8913 38.5095 9.4905ZM36.1647 23.1702C35.6304 22.6387 35.3527 21.9717 35.3306 21.1692V15.5C35.3136 14.6975 35.0382 14.0295 34.5044 13.4957C33.9705 12.9614 33.3019 12.6865 32.4996 12.6696H29.6691V26.8309L18.3309 12.6694H15.4999C14.6974 12.6864 14.0294 12.9613 13.4956 13.4956C12.9613 14.0295 12.6864 14.6975 12.6695 15.4997V21.1692C12.6473 21.9717 12.3696 22.6387 11.8353 23.1702C11.3014 23.701 10.6334 23.9777 9.83103 23.9997C10.6334 24.0223 11.3015 24.299 11.8352 24.8298C12.3696 25.3613 12.6473 26.0283 12.6694 26.8308V32.5C12.6864 33.3018 12.9613 33.9705 13.4956 34.5043C14.0295 35.0382 14.6975 35.3135 15.4997 35.3304H18.3309V21.1694L29.6691 35.3308H32.4996C33.3019 35.3138 33.9706 35.0383 34.5044 34.5045C35.0383 33.9706 35.3136 33.3021 35.3305 32.5004V26.8309C35.3527 26.0284 35.6304 25.3615 36.1647 24.8299C36.6986 24.2991 37.3666 24.0224 38.169 23.9999C37.3666 23.9777 36.6985 23.7012 36.1648 23.1703L36.1647 23.1702Z" fill="#ADADAD"/>
</g>
<defs>
<clipPath id="clip0_11470_11478">
<rect width="34" height="34" fill="white" transform="translate(7 7)"/>
</clipPath>
</defs>
</svg>
