<svg width="48" height="48" viewBox="0 0 48 48" fill="none" xmlns="http://www.w3.org/2000/svg">
<g clip-path="url(#clip0_11470_11470)">
<path d="M39.9108 10.6801C39.7956 7.67385 37.1533 7.04328 37.1533 7.04328C37.1533 7.04328 27.9949 5.66319 23.9827 5.1622C19.9694 4.65855 20.2192 8.54779 20.2192 8.54779C20.2192 8.54779 21.1306 36.8941 21.2252 40.4052C21.3327 44.5883 25.2373 43.9151 25.2373 43.9151L39.0356 41.5289C41.5448 41.0267 41.669 37.8935 41.669 37.8935C41.669 37.8935 40.0391 13.9619 39.9108 10.6801C40.039 13.9619 39.7956 7.67385 39.9108 10.6801ZM36.8244 34.7593L26.5643 35.8221C26.5643 35.8221 23.5763 36.2778 23.509 32.6476C23.4598 29.9729 22.8681 14.6521 22.8681 14.6521C22.8681 14.6521 22.6622 11.8427 25.737 12.073C28.8752 12.306 36.3947 12.8783 36.3947 12.8783C36.3947 12.8783 38.4079 13.3574 38.4958 15.6515C38.5903 18.145 39.459 31.9925 39.459 31.9925C39.459 31.9925 39.6855 34.2685 36.8244 34.7593ZM11.707 30.6292L9.81149 30.764C9.81149 30.764 7.89923 31.0228 7.85534 28.9307C7.82431 27.3888 7.63266 18.6369 7.63266 18.6369C7.63266 18.6369 7.50056 17.0174 9.4672 17.1495C9.96567 17.1817 10.6724 17.227 11.4531 17.2737C11.426 15.8223 11.4028 14.5535 11.3846 13.5879C10.3023 13.5062 9.28981 13.4182 8.56614 13.3419C5.96768 13.0557 6.1269 15.2372 6.1269 15.2372C6.1269 15.2372 6.44044 31.2883 6.49873 33.2562C6.57002 35.602 9.09579 35.2214 9.09579 35.2214L11.7925 34.9328C11.7692 33.7688 11.738 32.2852 11.7071 30.6293L11.707 30.6292ZM19.2457 16.0398C19.2382 15.8506 19.2065 15.663 19.1512 15.4818C18.3213 15.4146 16.2381 14.8721 15.5702 15.5777C15.1468 16.0218 15.3215 16.9578 15.3319 17.49L16.8428 17.5752C16.8428 17.5752 18.1309 17.851 18.1867 19.1716C18.2463 20.6114 18.2384 28.6756 18.2384 28.6756C18.2384 28.6756 18.3834 29.9909 16.5554 30.2694L15.5961 30.3407C15.6012 30.6267 15.6064 30.8572 15.6089 31.028C15.6492 33.3275 18.0947 32.5908 19.6289 32.4418C19.761 30.0027 19.5265 27.4898 19.4723 25.0494C19.4062 22.0471 19.3816 19.0396 19.2457 16.0398C19.3285 17.8756 19.2366 15.8353 19.2457 16.0398Z" fill="#ADADAD"/>
<path d="M20.0339 33.3828L17.2698 33.6495C17.2698 33.6495 14.6922 34.0197 14.6365 31.0498C14.5964 28.858 14.3374 16.4345 14.3374 16.4345C14.3374 16.4345 14.1587 14.1378 16.8038 14.3216C17.4834 14.3683 18.4183 14.4446 19.4359 14.5263C19.3594 12.1428 19.2985 10.2628 19.2675 9.29453C17.8745 9.15852 16.5616 9.02139 15.5907 8.91012C12.095 8.51369 12.3153 11.6041 12.3153 11.6041C12.3153 11.6041 12.7308 34.3925 12.8123 37.1773C12.9068 40.5059 16.3079 39.9712 16.3079 39.9712L20.2216 39.47C20.1828 38.1742 20.1168 35.9978 20.0339 33.3827V33.3828ZM25.6579 13.0399C25.1686 13.0011 24.5743 13.0335 24.2118 13.4154C23.8285 13.8167 23.8221 14.3863 23.8442 14.9016C25.2307 15.0221 26.2366 15.1113 26.2366 15.1113C26.2366 15.1113 27.9688 15.5011 28.0478 17.3783C28.128 19.42 28.624 30.5139 28.624 30.5139C28.624 30.5139 28.8181 32.3795 26.3557 32.782L24.4914 32.9607C24.7388 35.8749 28.5074 34.6451 30.435 34.4458C30.2371 30.0634 29.6234 16.5097 29.4849 13.3273C28.2095 13.2273 26.9339 13.1315 25.6579 13.0399C26.6276 13.1084 25.5621 13.0322 25.6579 13.0399Z" fill="#ADADAD"/>
</g>
<defs>
<clipPath id="clip0_11470_11470">
<rect width="35.7864" height="39" fill="white" transform="translate(6 5)"/>
</clipPath>
</defs>
</svg>
