<svg width="48" height="48" viewBox="0 0 48 48" fill="none" xmlns="http://www.w3.org/2000/svg">
<path fill-rule="evenodd" clip-rule="evenodd" d="M14.1703 8.56863C14.8765 8.18713 15.8311 8.13635 17.0436 8.5034C18.2559 8.87036 19.6515 9.63581 21.1424 10.7696C21.7735 11.2496 22.4165 11.7916 23.0645 12.3907C21.7761 13.6774 20.4896 15.1619 19.252 16.8068C17.1117 16.9873 15.0953 17.2874 13.2609 17.688C13.0303 16.8631 12.85 16.0707 12.7214 15.319C12.4174 13.544 12.4069 12.0303 12.6734 10.8644C12.9399 9.69826 13.4642 8.95012 14.1703 8.56863ZM21.9892 9.79656C22.6524 10.3009 23.3249 10.8677 24.0001 11.4915C24.6751 10.8679 25.3475 10.3012 26.0106 9.79697C27.5755 8.60675 29.1169 7.74228 30.5418 7.31098C31.9664 6.87968 33.349 6.86229 34.499 7.48364C35.6491 8.10492 36.3244 9.23406 36.6375 10.6042C36.9508 11.9744 36.9214 13.6558 36.6024 15.5192C36.4671 16.3089 36.2788 17.1374 36.039 17.9965C36.9545 18.2317 37.8158 18.4936 38.6147 18.779C40.499 19.4522 42.0701 20.2691 43.1818 21.2082C44.2935 22.1473 45 23.2585 45 24.4995C45 25.7406 44.2935 26.8517 43.1818 27.7908C42.0701 28.7299 40.499 29.5469 38.6147 30.2201C37.8158 30.5055 36.9544 30.7673 36.0389 31.0027C36.2788 31.8621 36.4672 32.6909 36.6025 33.4808C36.9215 35.3442 36.951 37.0255 36.6377 38.3958C36.3246 39.7659 35.6492 40.895 34.4992 41.5164C33.3492 42.1377 31.9665 42.1203 30.5418 41.6891C29.1171 41.2578 27.5757 40.3932 26.0107 39.203C25.3476 38.6987 24.6751 38.132 24.0001 37.5084C23.3249 38.1322 22.6523 38.699 21.9891 39.2034C20.424 40.3936 18.8826 41.2582 17.4579 41.6895C16.0332 42.1208 14.6506 42.1381 13.5005 41.5168C12.3505 40.8954 11.6752 39.7663 11.362 38.3962C11.0489 37.0259 11.0783 35.3446 11.3973 33.4812C11.5326 32.6911 11.721 31.8622 11.961 31.0026C11.0455 30.7673 10.1842 30.5055 9.38531 30.2201C7.50099 29.5469 5.92993 28.7299 4.81825 27.7908C3.70652 26.8517 3 25.7406 3 24.4995C3 23.2585 3.70652 22.1473 4.81825 21.2082C5.92993 20.2691 7.50099 19.4522 9.38531 18.779C10.1842 18.4936 11.0454 18.2318 11.9608 17.9965C11.721 17.1372 11.5326 16.3086 11.3975 15.5188C11.0784 13.6554 11.0489 11.974 11.3622 10.6038C11.6754 9.23366 12.3506 8.10451 13.5007 7.48324C14.6507 6.86188 16.0334 6.87927 17.458 7.31057C18.8828 7.74187 20.4242 8.60643 21.9892 9.79656ZM20.9974 16.6879C21.985 15.4381 22.9945 14.2999 24.0001 13.292C25.0056 14.2999 26.015 15.4381 27.0026 16.6879C26.0215 16.6367 25.0189 16.6102 24 16.6102C22.9811 16.6102 21.9786 16.6367 20.9974 16.6879ZM13.6265 18.8944C15.0622 18.5834 16.6204 18.3344 18.2713 18.159C17.7329 18.9289 17.2068 19.7286 16.697 20.5549C16.1877 21.3802 15.7111 22.2056 15.2681 23.026C14.6051 21.6006 14.0565 20.2134 13.6265 18.8944ZM17.8586 21.1824C17.1718 22.2955 16.5476 23.4057 15.988 24.4999C16.5477 25.5942 17.1719 26.7044 17.8587 27.8175C18.5459 28.9312 19.2615 29.9926 19.9948 30.9936C21.2871 31.0872 22.6266 31.1364 24 31.1364C25.3734 31.1364 26.7128 31.0872 28.0053 30.9936C28.7384 29.9926 29.4541 28.9314 30.141 27.8179C30.828 26.7047 31.4522 25.5943 32.012 24.4999C31.4523 23.4055 30.828 22.2952 30.1412 21.182C29.454 20.0682 28.738 19.0067 28.0047 18.0054C26.7124 17.9119 25.3732 17.8626 24 17.8626C22.6268 17.8626 21.2876 17.9119 19.9954 18.0054C19.2619 19.0067 18.5459 20.0684 17.8586 21.1824ZM12.3246 19.2019C12.8712 20.8895 13.6018 22.6744 14.5054 24.4999C13.602 26.3251 12.8713 28.1098 12.3248 29.7971C11.447 29.5716 10.6245 29.3217 9.86533 29.0505C8.07088 28.4094 6.66484 27.6613 5.71914 26.8624C4.77346 26.0636 4.34229 25.2641 4.34229 24.4995C4.34229 23.7349 4.77346 22.9354 5.71914 22.1366C6.66484 21.3378 8.07088 20.5896 9.86533 19.9485C10.6245 19.6773 11.4469 19.4274 12.3246 19.2019ZM15.2681 25.9738C14.6052 27.399 14.0567 28.7859 13.6267 30.1046C15.0621 30.4156 16.6202 30.6646 18.2707 30.84C17.7326 30.0704 17.2067 29.271 16.6971 28.4451C16.1878 27.6196 15.7111 26.7942 15.2681 25.9738ZM12.7212 33.6809C12.85 32.929 13.0303 32.1364 13.261 31.311C15.0952 31.7115 17.1114 32.0117 19.2514 32.1922C20.4891 33.8373 21.7758 35.3222 23.0645 36.6091C22.4165 37.2083 21.7734 37.7504 21.1422 38.2303C19.6514 39.3641 18.2558 40.1297 17.0435 40.4966C15.831 40.8637 14.8764 40.8129 14.1702 40.4314C13.464 40.0499 12.9398 39.3017 12.6732 38.1356C12.4067 36.9697 12.4174 35.456 12.7212 33.6809ZM26.8575 38.2299C26.2265 37.7501 25.5836 37.2081 24.9356 36.6091C26.2242 35.3222 27.5109 33.8373 28.7487 32.1922C30.8886 32.0117 32.9047 31.7116 34.7389 31.3111C34.9695 32.1362 35.1498 32.9288 35.2785 33.6805C35.5824 35.4556 35.5931 36.9693 35.3265 38.1352C35.06 39.3013 34.5357 40.0495 33.8295 40.431C33.1234 40.8125 32.1687 40.8633 30.9563 40.4962C29.7439 40.1293 28.3483 39.3637 26.8575 38.2299ZM24.0001 35.7079C25.0058 34.6997 26.0155 33.5613 27.0033 32.3111C26.0219 32.3623 25.0192 32.3888 24 32.3888C22.9809 32.3888 21.978 32.3623 20.9968 32.3111C21.9846 33.5613 22.9943 34.6998 24.0001 35.7079ZM34.3732 30.1046C32.9378 30.4156 31.3798 30.6646 29.7293 30.84C30.2674 30.0705 30.7931 29.2713 31.3027 28.4455C31.812 27.62 32.2888 26.7944 32.7318 25.9738C33.3947 27.399 33.9432 28.7859 34.3732 30.1046ZM35.6751 29.7971C35.1286 28.1098 34.398 26.3251 33.4945 24.4999C34.3981 22.6744 35.1288 20.8895 35.6753 19.2019C36.553 19.4274 37.3755 19.6773 38.1347 19.9485C39.9291 20.5896 41.3352 21.3378 42.2809 22.1366C43.2266 22.9354 43.6578 23.7349 43.6578 24.4995C43.6578 25.2641 43.2266 26.0636 42.2809 26.8624C41.3352 27.6613 39.9291 28.4094 38.1347 29.0505C37.3755 29.3217 36.5529 29.5717 35.6751 29.7971ZM28.7481 16.8068C30.8883 16.9873 32.9046 17.2874 34.739 17.6879C34.9695 16.8631 35.1497 16.0709 35.2783 15.3194C35.5823 13.5444 35.5929 12.0307 35.3264 10.8648C35.0598 9.69867 34.5356 8.95053 33.8294 8.56903C33.1232 8.18754 32.1686 8.13676 30.9562 8.5038C29.7438 8.87077 28.3482 9.63622 26.8574 10.77C26.2264 11.2499 25.5835 11.7918 24.9356 12.3907C26.2241 13.6774 27.5105 15.1619 28.7481 16.8068ZM32.7318 23.0259C33.3948 21.6005 33.9434 20.2133 34.3734 18.8944C32.9378 18.5834 31.3795 18.3344 29.7288 18.159C30.267 18.9288 30.7931 19.7283 31.3027 20.5544C31.8121 21.38 32.2888 22.2054 32.7318 23.0259ZM27.7889 24.4994C27.7889 26.4573 26.0927 28.0445 24.0003 28.0445C21.908 28.0445 20.2118 26.4573 20.2118 24.4994C20.2118 22.5415 21.908 20.9543 24.0003 20.9543C26.0927 20.9543 27.7889 22.5415 27.7889 24.4994Z" fill="#ADADAD"/>
</svg>
