<svg width="48" height="48" viewBox="0 0 48 48" fill="none" xmlns="http://www.w3.org/2000/svg">
<path d="M15.3512 7C14.818 7.0076 14.2956 7.1517 13.8339 7.41857C13.3722 7.68543 12.9866 8.06615 12.7138 8.5244L4.39521 22.9766C4.13601 23.4435 4 23.9687 4 24.5027C4 25.0367 4.13601 25.5619 4.39521 26.0287L12.7138 40.4793C13.2482 41.3972 14.2874 42.0021 15.3512 42.0037H31.9884C32.5216 41.9961 33.044 41.852 33.5057 41.5852C33.9674 41.3183 34.353 40.9376 34.6258 40.4793L42.9444 26.0287C43.2036 25.5619 43.3396 25.0367 43.3396 24.5027C43.3396 23.9687 43.2036 23.4435 42.9444 22.9766L34.6258 8.52603C34.353 8.06778 33.9674 7.68707 33.5057 7.4202C33.044 7.15334 32.5216 7.00924 31.9884 7.00164L15.3512 7ZM15.502 15.453C15.5254 15.4507 15.549 15.4507 15.5725 15.453H18.441C18.505 15.4549 18.5674 15.473 18.6225 15.5057C18.6776 15.5384 18.7234 15.5846 18.7557 15.6399L23.6239 24.3142C23.6485 24.3576 23.6641 24.4056 23.6698 24.4551C23.6755 24.4056 23.6911 24.3576 23.7157 24.3142L28.5724 15.6399C28.6057 15.5833 28.6531 15.5363 28.71 15.5035C28.7669 15.4708 28.8313 15.4534 28.897 15.453H31.7671C32.0212 15.4563 32.2113 15.7759 32.0933 16.0005L27.3398 24.501L32.0933 32.9901C32.2244 33.2163 32.0277 33.5507 31.7671 33.5474H28.8986C28.8315 33.5465 28.7658 33.5278 28.7082 33.4933C28.6506 33.4587 28.6032 33.4095 28.5708 33.3507L23.7157 24.6764C23.6909 24.6325 23.6753 24.584 23.6698 24.5338C23.6641 24.5834 23.6485 24.6313 23.6239 24.6748L18.7557 33.3491C18.7245 33.4061 18.6792 33.4542 18.6241 33.4886C18.5689 33.5231 18.5059 33.5428 18.441 33.5458H15.5725C15.3102 33.5491 15.1168 33.2147 15.2463 32.9885L19.9998 24.501L15.2463 16.0005C15.1315 15.7956 15.2709 15.4973 15.502 15.453Z" fill="#ADADAD"/>
</svg>
