<svg width="48" height="48" viewBox="0 0 48 48" fill="none" xmlns="http://www.w3.org/2000/svg">
<g clip-path="url(#clip0_11470_11540)">
<path d="M24.3455 31.9827C24.3222 34.282 23.9448 36.5755 22.7836 38.6832C21.2739 41.4179 18.9456 43.0089 15.8915 43.5488C13.7896 43.9205 11.7051 43.8101 9.68454 43.0785C6.85687 42.0566 4.98143 40.0535 3.91307 37.2722C3.07116 35.0658 2.88536 32.7782 3.05954 30.4498C3.1989 28.615 3.62276 26.8499 4.50531 25.2183C6.0556 22.35 8.48263 20.7068 11.6761 20.2017C13.8593 19.8591 16.0192 20.0101 18.0805 20.8636C20.7397 21.961 22.4642 23.9468 23.4629 26.606C24.1074 28.3073 24.3397 30.0898 24.3455 31.9827ZM6.36333 32.2614C6.39817 32.6446 6.43882 33.3878 6.54913 34.1194C6.793 35.7045 7.30976 37.1968 8.37231 38.4277C10.3813 40.7444 12.9477 41.2554 15.7986 40.5063C18.1559 39.8851 19.5727 38.2012 20.3507 35.9658C21.0997 33.8117 21.1578 31.6053 20.763 29.3757C20.5017 27.895 19.9675 26.519 18.992 25.3461C17.5056 23.5694 15.5547 22.8726 13.2844 22.9771C10.7819 23.0932 8.87746 24.2371 7.63491 26.4202C6.66526 28.1215 6.38656 29.9853 6.36333 32.2614Z" fill="#ADADAD"/>
<path d="M26.6406 37.0107C27.7438 37.0107 28.8006 37.0107 29.8573 37.0107C29.9502 37.3358 30.0083 37.661 30.1244 37.9629C30.5192 38.9848 31.245 39.7164 32.2147 40.1751C34.2179 41.1157 36.2733 41.1854 38.3229 40.3609C39.3971 39.9312 40.2332 39.1996 40.5467 38.0268C40.8719 36.7842 40.5583 35.7159 39.548 34.8914C38.6713 34.1772 37.6203 33.8462 36.552 33.5617C35.0307 33.1553 33.4979 32.7779 31.9766 32.3424C31.0766 32.0869 30.2405 31.6631 29.4741 31.1115C27.7903 29.9037 27.1284 28.2315 27.2735 26.2167C27.4361 23.8884 28.638 22.1756 30.6876 21.1653C33.8404 19.6092 37.0804 19.5685 40.2332 21.1769C42.2654 22.2162 43.4034 23.9639 43.6531 26.2632C43.6647 26.3851 43.6531 26.5129 43.6531 26.6754C43.3918 26.6754 43.1363 26.6754 42.8867 26.6754C42.1551 26.6754 41.4235 26.6812 40.6919 26.6696C40.6048 26.6696 40.448 26.5651 40.4364 26.4954C40.21 24.6955 38.8629 23.3368 36.7204 22.9884C35.2049 22.7446 33.7359 22.8549 32.3715 23.6155C30.9895 24.382 30.3334 25.8568 30.7399 27.2387C30.9779 28.0515 31.576 28.5451 32.2844 28.9283C33.3353 29.5031 34.4966 29.7702 35.6462 30.0605C37.1733 30.4495 38.7235 30.7631 40.1809 31.396C40.9532 31.7327 41.679 32.1392 42.3177 32.7024C43.6008 33.8346 44.0653 35.2978 44.0189 36.9526C43.9434 39.8674 42.4918 41.888 39.8151 42.9273C36.8597 44.0769 33.8288 44.1118 30.8792 42.8983C28.5219 41.9286 27.0819 40.1519 26.6987 37.5855C26.6639 37.4055 26.658 37.2255 26.6406 37.0107Z" fill="#ADADAD"/>
<path d="M8.05049 13.7177C8.5208 11.97 8.99111 10.2223 9.46143 8.47463C9.62981 7.84174 9.62981 7.83594 10.2743 7.83594C11.0059 7.83594 11.0059 7.83594 11.1975 8.5385C11.662 10.2688 12.1323 11.9933 12.6607 13.7293C13.1252 11.7726 13.5897 9.81008 14.06 7.84755C14.5303 7.84755 14.9832 7.84755 15.4651 7.84755C15.2039 8.78817 14.9484 9.70557 14.6987 10.623C14.2981 12.0803 13.8858 13.5435 13.4968 15.0067C13.4387 15.2332 13.3458 15.3203 13.1136 15.3028C12.8175 15.2854 12.5213 15.2854 12.2252 15.3028C11.9988 15.3203 11.9175 15.2274 11.8594 15.0183C11.3891 13.3345 10.913 11.6507 10.4369 9.97266C10.4137 9.87976 10.3846 9.79266 10.3324 9.62428C10.2801 9.76363 10.2511 9.84492 10.2279 9.92621C9.74593 11.6158 9.2582 13.3055 8.78789 15.0009C8.72403 15.2216 8.64274 15.3145 8.40468 15.3028C8.08533 15.2796 7.76598 15.3087 7.45244 15.2912C7.36535 15.2854 7.22019 15.2041 7.20277 15.1287C6.52343 12.7365 5.86152 10.3326 5.2054 7.93464C5.1996 7.91723 5.2054 7.894 5.21702 7.85336C5.6641 7.85336 6.11699 7.85336 6.59311 7.85336C7.05761 9.80428 7.52212 11.7552 7.98662 13.7119C8.00985 13.7119 8.03307 13.7177 8.05049 13.7177Z" fill="#ADADAD"/>
<path d="M42.5626 15.283C42.0865 15.283 41.6452 15.283 41.1517 15.283C41.1517 15.1436 41.1517 15.0217 41.1517 14.8998C41.1517 13.6282 41.1517 12.3508 41.1517 11.0792C41.1517 10.9399 41.1517 10.8005 41.1401 10.667C41.0704 9.58698 40.5246 9.02377 39.5317 8.99474C38.504 8.9599 37.7318 9.5986 37.6156 10.5973C37.5692 10.9863 37.575 11.3811 37.5692 11.7702C37.5634 12.9256 37.5692 14.0811 37.5692 15.2656C37.0931 15.2656 36.6402 15.2656 36.1641 15.2656C36.1641 11.8456 36.1641 8.43153 36.1641 5C36.6228 5 37.0698 5 37.5518 5C37.5518 6.32964 37.5518 7.65348 37.5518 8.97151C37.575 8.98313 37.5924 8.98893 37.6156 9.00055C37.6679 8.93087 37.7202 8.867 37.7666 8.79732C38.3705 7.92638 39.4446 7.56639 40.6639 7.83348C41.6394 8.04251 42.3362 8.79152 42.5162 9.82504C42.5452 10.005 42.5742 10.185 42.58 10.3592C42.5858 11.9501 42.5858 13.5411 42.5858 15.1378C42.58 15.1785 42.5684 15.2191 42.5626 15.283Z" fill="#ADADAD"/>
<path d="M22.1639 15.2849C21.7052 15.2849 21.2755 15.2849 20.811 15.2849C20.811 14.8958 20.811 14.5184 20.811 14.0423C20.3523 14.7507 19.7891 15.1455 19.0691 15.3081C18.4537 15.4416 17.844 15.4068 17.2576 15.1687C16.375 14.8145 15.8815 14.0597 15.8989 13.1075C15.9221 12.2482 16.404 11.5456 17.3272 11.2901C18.0356 11.0927 18.7846 11.0463 19.5162 10.9592C19.911 10.9127 20.3175 10.9069 20.7065 10.8837C20.8807 9.8966 20.5904 9.27533 19.8588 9.04888C18.8369 8.72954 18.0124 9.08372 17.5711 10.0301C17.153 10.0301 16.7292 10.0301 16.2763 10.0301C16.2531 9.66435 16.3692 9.35081 16.5434 9.0663C17.0369 8.25923 17.7975 7.90504 18.6859 7.78892C19.3536 7.70182 20.0214 7.75408 20.6542 8.01536C21.5484 8.38116 22.1291 9.01405 22.1465 10.0011C22.1871 11.743 22.1639 13.4965 22.1639 15.2849ZM20.7181 11.9056C20.0039 11.952 19.3072 11.9985 18.6162 12.0566C18.442 12.074 18.2621 12.1204 18.0937 12.1785C17.5711 12.3643 17.3214 12.7069 17.3447 13.1888C17.3621 13.6417 17.6524 13.9784 18.1575 14.1294C19.6788 14.5881 20.8981 13.5604 20.7181 11.9056Z" fill="#ADADAD"/>
<path d="M34.8838 12.8177C34.7968 13.5145 34.5297 14.0602 34.0652 14.5131C32.7994 15.7615 29.9543 15.7615 28.8046 13.9093C27.8234 12.3358 28.0498 9.83907 29.3214 8.61974C30.8833 7.12171 33.8155 7.59783 34.6458 9.49649C34.7561 9.75197 34.8142 10.0365 34.9129 10.3558C34.4542 10.3558 34.0535 10.3616 33.6529 10.35C33.589 10.35 33.4903 10.2571 33.4729 10.1933C33.2407 9.44424 32.7123 9.06102 31.9633 8.97973C31.1562 8.88683 30.4711 9.15973 30.0762 9.88552C29.4724 10.9945 29.4724 12.15 30.0762 13.259C30.4536 13.9499 31.1039 14.217 31.8762 14.1648C32.6542 14.1125 33.2232 13.7583 33.4787 12.9803C33.5019 12.9106 33.6181 12.8235 33.6994 12.8177C34.0768 12.8119 34.46 12.8177 34.8838 12.8177Z" fill="#ADADAD"/>
<path d="M24.2969 8.97927C23.9195 8.97927 23.5886 8.97927 23.2344 8.97927C23.2344 8.60186 23.2344 8.23606 23.2344 7.84704C23.5711 7.84704 23.9079 7.84704 24.2795 7.84704C24.2795 7.24319 24.2795 6.66836 24.2795 6.07031C24.7672 6.07031 25.2201 6.07031 25.7079 6.07031C25.7079 6.65094 25.7079 7.22577 25.7079 7.82962C26.2014 7.82962 26.6485 7.82962 27.1304 7.82962C27.1304 8.21865 27.1304 8.58444 27.1304 8.97347C26.6717 8.97347 26.2188 8.97347 25.7427 8.97347C25.7311 9.07798 25.7137 9.15927 25.7137 9.24056C25.7137 10.5354 25.7137 11.8302 25.7137 13.125C25.7137 13.2179 25.7195 13.3166 25.7311 13.4095C25.8008 13.9204 26.0214 14.1353 26.5382 14.1759C26.724 14.1875 26.9156 14.1759 27.142 14.1759C27.142 14.4953 27.1536 14.8204 27.1304 15.1456C27.1246 15.2094 26.9969 15.314 26.9272 15.314C26.422 15.3023 25.9053 15.3314 25.4117 15.2269C24.686 15.0759 24.3143 14.5243 24.3027 13.6533C24.2795 12.2308 24.2911 10.8083 24.2911 9.39152C24.2969 9.26378 24.2969 9.14185 24.2969 8.97927Z" fill="#ADADAD"/>
</g>
<defs>
<clipPath id="clip0_11470_11540">
<rect width="41.0157" height="38.7919" fill="white" transform="translate(3 5)"/>
</clipPath>
</defs>
</svg>
