<svg width="48" height="48" viewBox="0 0 48 48" fill="none" xmlns="http://www.w3.org/2000/svg">
<g clip-path="url(#clip0_11479_11629)">
<path d="M34.483 7H13.4121C9.87919 7 7.01562 9.86357 7.01562 13.3965V34.4682C7.01562 38.0011 9.87919 40.8647 13.4121 40.8647H34.483C38.016 40.8647 40.8795 38.0011 40.8795 34.4682V13.3965C40.8803 9.86357 38.016 7 34.483 7Z" fill="#7B7B7B"/>
<path d="M40.9319 23.9885C40.9319 27.455 40.8717 30.923 40.9491 34.3879C41.0218 37.6323 38.6454 40.3942 35.3651 40.8829C35.0695 40.9267 34.7692 40.9572 34.4713 40.9572C27.486 40.9611 20.5007 40.9651 13.5153 40.958C10.5165 40.9549 7.91254 38.946 7.19548 36.0848C7.086 35.6477 7.03752 35.184 7.03596 34.732C7.02423 30.4836 7.03126 26.2351 7.02344 21.9867C7.02266 21.6739 7.08757 21.4987 7.42459 21.3971C11.0506 20.2976 14.6719 19.1802 18.2939 18.0675C22.4767 16.7819 26.6587 15.4956 30.8406 14.2092C33.9528 13.2521 37.0666 12.3005 40.1742 11.33C40.505 11.2268 40.6379 11.3167 40.684 11.6209C40.7708 12.198 40.9171 12.7759 40.921 13.3546C40.9429 16.8992 40.9319 20.4439 40.9319 23.9885ZM26.2896 20.2906C21.4414 20.3086 17.8936 24.8503 19.1455 29.4373C19.9728 32.4682 22.4392 34.5678 25.5803 34.8946C26.6837 35.0096 27.7667 34.8798 28.8114 34.4935C29.2532 34.3301 29.3025 34.1088 28.9881 33.7709C28.7926 33.5614 28.5729 33.3737 28.3852 33.1579C28.1522 32.8905 27.9051 32.8451 27.554 32.9335C23.6019 33.9305 19.9197 30.2224 20.9315 26.2774C21.6486 23.4803 24.4637 21.6708 27.2733 22.201C30.2174 22.7562 32.2317 25.4446 31.7344 28.3691C31.5843 29.252 31.768 29.779 32.403 30.3014C32.8448 30.665 33.0426 30.647 33.2428 30.098C34.9858 25.314 31.4107 20.2711 26.2896 20.2906ZM16.2937 27.7717C16.2937 26.5088 16.2945 25.2452 16.2937 23.9823C16.2937 23.1753 16.2882 22.3675 16.2921 21.5605C16.2937 21.2352 16.1482 21.0788 15.8198 21.0867C15.5594 21.0929 15.299 21.0851 15.0386 21.0874C14.4279 21.0929 14.3638 21.1562 14.3638 21.7599C14.363 24.9504 14.363 28.1408 14.3622 31.3312C14.3622 32.1906 14.3583 33.05 14.3638 33.9094C14.3661 34.3504 14.4779 34.4552 14.9252 34.4638C15.1723 34.4685 15.4202 34.4653 15.6673 34.4638C16.2217 34.4599 16.2937 34.3895 16.2937 33.8265C16.2952 31.8082 16.2945 29.79 16.2937 27.7717ZM29.2352 29.313C29.0757 29.2121 28.863 29.2222 28.7223 29.3481C28.7215 29.3489 28.7207 29.3497 28.7199 29.3505C28.5283 29.5256 28.3469 29.7125 28.1624 29.8955C27.7886 30.2662 27.7839 30.3968 28.1467 30.7635C28.5854 31.2077 29.0288 31.6479 29.469 32.0897C30.423 33.0484 31.3755 34.0094 32.3318 34.9658C32.672 35.306 32.8034 35.3036 33.1419 34.972C33.3281 34.7899 33.5079 34.6022 33.6932 34.42C33.9247 34.1924 33.9161 33.9766 33.687 33.7475C32.2435 32.3024 30.8054 30.8526 29.3604 29.4091C29.3236 29.3724 29.2814 29.3419 29.2352 29.313Z" fill="#ADADAD"/>
<path d="M24.9898 11.8874C24.8842 12.362 24.7786 12.8367 24.6739 13.3114C24.6316 13.5022 24.598 13.6945 24.5511 13.8838C24.4533 14.281 24.3744 14.3091 24.0796 14.0386C23.6479 13.6429 23.2257 13.2379 22.7979 12.839C22.7166 12.7632 22.6259 12.6959 22.4765 12.6623C22.6454 13.2027 22.8073 13.7461 22.9872 14.2833C23.0661 14.5187 23.1115 14.7001 22.8018 14.8026C22.4883 14.9058 22.3561 14.7932 22.2662 14.496C22.0253 13.6992 21.7517 12.9126 21.5085 12.1165C21.4514 11.9296 21.2449 11.713 21.5304 11.5277C21.8502 11.3197 22.2545 11.3244 22.5023 11.5511C22.8863 11.9023 23.264 12.2604 23.6464 12.6131C23.7386 12.6983 23.8387 12.7734 23.9982 12.9047C24.1132 12.4434 24.2141 12.0469 24.311 11.6489C24.3572 11.4597 24.3939 11.2681 24.4401 11.0781C24.5409 10.6644 24.8248 10.4259 25.2408 10.4556C25.3464 10.4634 25.4973 10.5917 25.5332 10.6972C25.8343 11.5832 26.108 12.4786 26.402 13.3677C26.488 13.6281 26.4028 13.7516 26.1541 13.8275C25.9117 13.9017 25.7295 13.9135 25.6365 13.6155C25.4558 13.0353 25.258 12.4606 25.068 11.8843C25.0265 11.885 25.0312 11.885 24.9898 11.8874Z" fill="#ADADAD"/>
<path d="M32.1562 10.7753C31.9615 10.156 31.7965 9.62896 31.6292 9.10192C31.5541 8.86654 31.422 8.64368 31.8075 8.52091C32.1898 8.39971 32.2845 8.59442 32.376 8.89313C32.6113 9.66415 32.8764 10.4274 33.1071 11.1999C33.1955 11.5002 32.9812 11.8052 32.6692 11.8224C32.5566 11.8286 32.4502 11.8216 32.3595 11.7809C31.6612 11.4658 30.9942 11.0811 30.3139 10.7245C30.1231 10.6244 29.9292 10.529 29.625 10.375C29.79 10.9137 29.9182 11.3352 30.0496 11.7598C30.1012 11.9264 30.1599 12.0914 30.2169 12.2564C30.2889 12.4644 30.2803 12.6247 29.98 12.7185C29.7525 12.7897 29.5132 12.6528 29.4444 12.4253C29.1855 11.5675 28.9079 10.7151 28.6178 9.86746C28.5138 9.56328 28.6163 9.38812 28.9009 9.37482C29.1597 9.36231 29.4498 9.38733 29.6797 9.49525C30.3264 9.79943 30.9489 10.1552 31.5823 10.4891C31.741 10.5728 31.9029 10.6494 32.1562 10.7753Z" fill="#ADADAD"/>
<path d="M20.2473 14.0529C20.5694 14.2993 20.8713 14.5299 21.1692 14.7567C21.3835 14.9201 21.3146 15.2712 21.0496 15.3221C20.8478 15.3612 20.6492 15.3041 20.4443 15.1563C20.1597 14.9506 19.8813 14.7372 19.5943 14.5338C19.3589 14.3673 18.7732 14.3986 18.5785 14.6011C18.5246 14.6566 18.5152 14.7903 18.5363 14.8763C18.6004 15.1414 18.6841 15.4018 18.7693 15.6607C18.8491 15.9023 18.7138 15.9977 18.5168 16.0524C18.3174 16.1072 18.0867 16.2049 17.9913 15.9179C17.6793 14.9803 17.3743 14.0396 17.0889 13.0935C17.0482 12.9582 17.1264 12.8159 17.2617 12.7768C18.0718 12.5422 18.8819 12.2982 19.7077 12.1324C20.2496 12.0237 20.6367 12.3091 20.8142 12.7854C20.9588 13.1732 20.8767 13.4985 20.5663 13.7699C20.4803 13.8465 20.3943 13.9231 20.2473 14.0529Z" fill="#ADADAD"/>
<path d="M11.5131 15.1233C11.0987 15.2226 10.6686 15.2789 10.2745 15.4306C9.68798 15.6558 9.46434 16.1414 9.60431 16.7169C9.73803 17.2674 10.2432 17.6678 10.8312 17.5818C11.2597 17.5192 11.6711 17.33 12.0847 17.1806C12.3326 17.0915 12.2974 16.9007 12.2309 16.6943C12.1527 16.4518 12.0003 16.4511 11.8024 16.516C11.6296 16.573 11.4537 16.6536 11.2769 16.6575C11.2449 16.6583 11.212 16.6512 11.1792 16.6395C11.0048 16.577 10.9305 16.3619 11.033 16.2079C11.0533 16.1774 11.076 16.1547 11.1041 16.1437C11.5178 15.9889 11.9447 15.8591 12.3764 15.77C12.489 15.7465 12.6939 15.8693 12.7588 15.9811C12.8737 16.1789 12.9152 16.4198 12.9848 16.6434C13.1677 17.2299 13.1529 17.38 12.5836 17.6334C11.9854 17.9 11.3473 18.1589 10.7053 18.2293C9.28293 18.3856 8.31876 17.0735 8.85206 15.8067C9.05772 15.3188 9.44323 14.9841 9.92258 14.8394C10.4887 14.669 11.0854 14.59 11.6742 14.5102C11.8869 14.4813 12.3162 14.493 12.1801 14.83C12.0581 15.1303 11.8361 15.0607 11.5131 15.1233Z" fill="#ADADAD"/>
<path d="M13.9584 17.3193C13.7934 17.3475 13.6503 17.2012 13.6746 17.0355C13.7371 16.6054 13.7942 16.2019 13.8568 15.7992C13.9537 15.1759 14.053 14.5527 14.1586 13.9303C14.2438 13.4259 14.6168 13.3008 14.9867 13.6542C15.7867 14.419 16.5686 15.2025 17.3608 15.9751C17.5688 16.1784 17.532 16.2957 17.2575 16.3763C16.9768 16.4591 16.7164 16.5475 16.4678 16.2762C16.3966 16.1987 16.2011 16.1823 16.0807 16.2113C15.6131 16.3254 15.1501 16.4599 14.6919 16.6085C14.5856 16.6429 14.4417 16.7539 14.4268 16.847C14.3752 17.1574 14.2102 17.2755 13.9584 17.3193ZM14.5316 16.0854C15.0188 15.9407 15.4043 15.8257 15.8805 15.6842L14.5316 16.0854Z" fill="#ADADAD"/>
<path d="M27.0047 9.90511C27.1634 9.87696 27.3308 9.93873 27.4184 10.0748C27.4316 10.0951 27.4426 10.1162 27.4496 10.1389C27.7499 11.0366 28.0314 11.9406 28.3247 12.8414C28.4052 13.0893 28.2988 13.2105 28.0721 13.2652C27.8633 13.3153 27.6318 13.438 27.5278 13.1135C27.2299 12.1869 26.9265 11.2626 26.6411 10.3328C26.5754 10.1194 26.7138 9.95672 27.0047 9.90511Z" fill="#ADADAD"/>
<path d="M26.2882 20.2813C31.4093 20.2625 34.9845 25.3054 33.2407 30.0887C33.0405 30.6377 32.8427 30.6557 32.4009 30.2921C31.7659 29.7697 31.5822 29.2427 31.7323 28.3598C32.2288 25.4353 30.2153 22.7468 27.2712 22.1917C24.4616 21.6615 21.6473 23.4709 20.9294 26.268C19.9175 30.2139 23.5998 33.9212 27.5519 32.9242C27.903 32.8358 28.1501 32.8812 28.3831 33.1486C28.5708 33.3644 28.7905 33.5521 28.986 33.7616C29.3004 34.0995 29.2503 34.3208 28.8093 34.4842C27.7654 34.8705 26.6823 35.0003 25.5782 34.8853C22.437 34.5585 19.9707 32.4589 19.1434 29.428C17.893 24.841 21.44 20.2993 26.2882 20.2813Z" fill="#7B7B7B"/>
<path d="M16.2922 27.7634C16.2922 29.7817 16.293 31.8 16.2922 33.8182C16.2914 34.3812 16.2202 34.4508 15.6658 34.4555C15.4187 34.4571 15.1708 34.4602 14.9237 34.4555C14.4765 34.4469 14.3654 34.3414 14.3623 33.9011C14.3568 33.0417 14.3607 32.1823 14.3607 31.323C14.3607 28.1325 14.3607 24.9421 14.3623 21.7517C14.3623 21.148 14.4272 21.0839 15.0371 21.0792C15.2975 21.0768 15.5579 21.0847 15.8183 21.0784C16.1467 21.0706 16.2922 21.227 16.2906 21.5523C16.2867 22.3593 16.2922 23.167 16.2922 23.974C16.2922 25.2369 16.2922 26.5006 16.2922 27.7634Z" fill="#7B7B7B"/>
<path d="M28.7265 29.3457C28.8665 29.2198 29.0792 29.2096 29.2395 29.3105C29.2848 29.3394 29.3278 29.3699 29.3646 29.4067C30.8097 30.8502 32.2485 32.2999 33.6912 33.745C33.9203 33.9741 33.9297 34.19 33.6975 34.4175C33.5121 34.5997 33.3323 34.7882 33.1462 34.9696C32.8076 35.3011 32.6762 35.3035 32.3361 34.9633C31.3797 34.0062 30.4273 33.0459 29.4733 32.0873C29.033 31.6447 28.5897 31.2052 28.151 30.761C27.7889 30.3943 27.7928 30.2637 28.1666 29.893C28.3512 29.7101 28.5326 29.5232 28.7242 29.348C28.7249 29.3472 28.7257 29.3465 28.7265 29.3457Z" fill="#7B7B7B"/>
<path d="M19.2519 12.8151C19.474 12.7533 19.7156 12.8018 19.8869 12.9559C19.9409 13.0044 19.9792 13.0544 19.9846 13.1076C19.9987 13.2655 19.8314 13.5228 19.6765 13.5955C19.3059 13.7699 18.8969 13.8653 18.5012 13.9857C18.2111 14.0741 18.1736 13.8356 18.1322 13.6581C18.0915 13.4837 17.8772 13.2436 18.1932 13.1318C18.5271 13.013 18.8688 12.9215 19.2519 12.8151Z" fill="#7B7B7B"/>
<path d="M14.7596 14.4922C15.0794 14.837 15.5149 15.3078 15.9036 15.7269C15.4266 15.8685 15.0419 15.9834 14.5547 16.1281C14.6282 15.5729 14.6884 15.1193 14.7486 14.6658C14.7525 14.6165 14.7564 14.5555 14.7596 14.4922Z" fill="#7B7B7B"/>
<path d="M33.9543 11.4711C34.1879 11.4711 34.3773 11.2817 34.3773 11.048C34.3773 10.8144 34.1879 10.625 33.9543 10.625C33.7207 10.625 33.5312 10.8144 33.5312 11.048C33.5312 11.2817 33.7207 11.4711 33.9543 11.4711Z" fill="#ADADAD"/>
</g>
<defs>
<clipPath id="clip0_11479_11629">
<rect width="33.9272" height="33.9327" fill="white" transform="translate(7 7)"/>
</clipPath>
</defs>
</svg>
