<svg width="48" height="48" viewBox="0 0 48 48" fill="none" xmlns="http://www.w3.org/2000/svg">
<g clip-path="url(#clip0_11470_11560)">
<path d="M14.0322 21.7477C14.7034 23.591 15.3646 25.4443 16.0458 27.3176C14.5932 27.9588 13.2508 28.3895 11.8383 28.5398C11.7682 28.5498 11.688 28.5398 11.6179 28.5598C9.48412 28.9706 8.08162 27.9888 7.08986 26.1956C6.08808 24.3824 5.60723 22.3989 5.10634 20.4154C4.81582 19.2533 5.04623 19.0028 6.18826 19.3434C8.72276 20.1048 11.2473 20.9263 13.7818 21.7177C13.8719 21.7477 13.9621 21.7477 14.0422 21.7678L14.0322 21.7477Z" fill="#ADADAD"/>
<path d="M23.8622 34.1032C24.0425 36.1668 23.9724 38.1704 23.1609 40.0938C22.8003 40.9553 22.069 41.4061 21.2375 41.7367C19.7148 42.3378 18.1119 42.3979 16.4991 42.3478C15.4672 42.3178 14.4354 42.2276 13.4036 42.1675C12.8927 42.1374 12.7023 41.867 12.8927 41.3961C13.0129 41.0956 13.1932 40.8051 13.3835 40.5346C14.8261 38.511 16.2787 36.4874 17.7413 34.4738C17.8615 34.3035 18.1119 34.1232 18.3123 34.1232C20.1355 34.0931 21.9588 34.1032 23.8622 34.1032Z" fill="#ADADAD"/>
<path d="M30.0234 18.6563C30.9952 17.0034 32.0571 15.7011 33.3794 14.6091C34.5214 13.6674 35.7837 13.447 37.096 14.008C38.188 14.4789 39.2599 15.0399 40.2416 15.7111C41.3135 16.4323 42.2752 17.3039 43.267 18.1254C43.7078 18.486 43.6777 18.8366 43.1668 19.1071C42.7761 19.3175 42.3554 19.4677 41.9446 19.608C39.7207 20.3493 37.5067 21.0806 35.2728 21.8019C35.0824 21.862 34.8019 21.882 34.6617 21.7919C33.1189 20.76 31.5962 19.7182 30.0234 18.6563Z" fill="#ADADAD"/>
<path d="M39.2456 33.9241C39.0052 35.0361 38.8349 36.1681 38.4943 37.25C38.1036 38.5323 37.5726 39.7745 37.0818 41.0267C36.9014 41.4976 36.5709 41.5777 36.1802 41.2471C35.9297 41.0368 35.7093 40.7763 35.509 40.5058C34.0263 38.5022 32.5537 36.4987 31.0911 34.4851C30.9609 34.3048 30.9008 33.9842 30.9609 33.7738C31.4417 32.151 31.9627 30.5381 32.4535 28.9252C32.5437 28.6247 32.724 28.5846 32.9945 28.6547C34.4872 29.0354 35.8997 29.5864 37.222 30.3878C38.5544 31.1993 39.1855 32.3413 39.0853 33.8941C39.1454 33.9141 39.1955 33.9141 39.2456 33.9241Z" fill="#ADADAD"/>
<path d="M19.8746 17.9216C18.4721 16.3589 17.4603 14.776 16.8793 12.9328C16.5587 11.9009 16.8292 10.9693 17.3902 10.0977C18.1315 8.93566 19.1433 8.05409 20.2453 7.2727C21.2972 6.53138 22.3991 5.85017 23.481 5.14893C23.9318 4.85841 24.2524 4.99866 24.3626 5.51959C24.4327 5.90026 24.4728 6.29096 24.4728 6.67163C24.4928 9.08593 24.5029 11.5102 24.4928 13.9245C24.4928 14.1349 24.3927 14.4154 24.2324 14.5356C22.7998 15.6776 21.3573 16.7796 19.8746 17.9216Z" fill="#ADADAD"/>
<path d="M9.50781 29.0319C9.79833 28.9918 9.93858 28.9417 10.0688 28.9618C11.9822 29.2022 13.7453 28.6111 15.5285 28.0501C17.4018 27.4491 19.2852 26.848 21.1685 26.307C21.4891 26.2169 21.97 26.277 22.2404 26.4573C22.9016 26.8981 22.9818 27.3088 22.5209 27.95C21.1585 29.8534 19.746 31.7167 18.3636 33.61C18.0831 33.9907 17.7425 34.0408 17.3518 33.8505C16.7908 33.58 16.2097 33.3195 15.6888 32.9989C13.8355 31.8569 12.0022 30.6948 10.169 29.5328C9.96863 29.4025 9.79833 29.2523 9.50781 29.0319Z" fill="#ADADAD"/>
<path d="M38.6537 30.9746C38.4934 30.8744 38.3131 30.7943 38.1729 30.6641C37.101 29.6523 35.7886 29.0913 34.4062 28.6405C32.4126 27.9893 30.4191 27.3281 28.4356 26.667C28.125 26.5668 27.8245 26.4165 27.5139 26.2863C26.9529 26.0559 26.8828 25.575 26.8828 25.0541C26.8828 24.5933 27.1833 24.3829 27.544 24.2627C29.818 23.5314 32.1021 22.8201 34.3761 22.0988C34.7568 21.9786 35.0373 22.1089 35.2176 22.4294C35.5282 22.9904 35.8588 23.5514 36.1092 24.1425C36.9407 26.1661 37.7421 28.1997 38.5536 30.2433C38.6337 30.4537 38.6938 30.6841 38.7539 30.9045C38.7239 30.9145 38.6938 30.9446 38.6537 30.9746Z" fill="#ADADAD"/>
<path d="M14.0535 21.7583C13.9834 20.0252 14.6445 18.4424 15.0352 16.7995C15.3358 15.5472 15.6463 14.295 15.9469 13.0428C16.007 12.8124 16.0871 12.592 16.2975 12.3516C16.3876 12.612 16.5179 12.8525 16.568 13.1229C16.7783 14.1948 17.2492 15.1465 17.8703 16.0281C19.2227 17.9415 20.5951 19.8349 21.9475 21.7382C22.1479 22.0187 22.3182 22.3293 22.5085 22.6298C22.8491 23.1508 22.6588 23.6116 22.3482 24.0524C22.0477 24.4731 21.6169 24.413 21.2463 24.2928C19.0023 23.5615 16.7783 22.8102 14.5444 22.0488C14.354 21.9887 14.1937 21.8484 14.0234 21.7483C14.0335 21.7483 14.0535 21.7583 14.0535 21.7583Z" fill="#ADADAD"/>
<path d="M34.3519 13.4423C34.0714 13.6727 33.9412 13.823 33.7709 13.9131C32.4184 14.6444 31.4768 15.7965 30.5852 17.0086C29.373 18.6616 28.1709 20.3045 26.9487 21.9574C26.7584 22.2079 26.538 22.4383 26.3376 22.6687C25.967 23.0995 25.5062 23.0594 25.0153 22.9292C24.5144 22.7989 24.4142 22.3982 24.4042 21.9875C24.3641 21.0158 24.3441 20.034 24.3541 19.0523C24.3742 17.6698 24.4343 16.2874 24.4543 14.9049C24.4643 14.4441 24.6947 14.2137 25.0954 14.1435C25.7666 14.0133 26.4378 13.8731 27.109 13.823C29.2628 13.6527 31.4167 13.5224 33.5605 13.3922C33.7809 13.3822 33.9912 13.4223 34.3519 13.4423Z" fill="#ADADAD"/>
<path d="M23.4453 40.5305C23.4954 40.3402 23.5054 40.1298 23.5856 39.9595C24.2367 38.6071 24.3269 37.1545 24.3369 35.702C24.3569 33.6383 24.3469 31.5746 24.367 29.5109C24.367 29.1804 24.4271 28.8498 24.4471 28.5192C24.4872 27.9181 24.9179 27.6977 25.4088 27.5174C25.8696 27.3571 26.1702 27.6176 26.4006 27.9382C27.793 29.8616 29.1655 31.795 30.5479 33.7284C30.7783 34.049 30.7383 34.3596 30.4878 34.63C30.0771 35.0708 29.6764 35.5417 29.2156 35.9324C27.5125 37.3749 25.7995 38.7975 24.0865 40.22C23.9161 40.3602 23.7358 40.4704 23.5555 40.6007C23.5255 40.5806 23.4854 40.5606 23.4453 40.5305Z" fill="#ADADAD"/>
</g>
<defs>
<clipPath id="clip0_11470_11560">
<rect width="38.5886" height="37.3564" fill="white" transform="translate(5 5)"/>
</clipPath>
</defs>
</svg>
