<svg width="48" height="48" viewBox="0 0 48 48" fill="none" xmlns="http://www.w3.org/2000/svg">
<g clip-path="url(#clip0_11470_11578)">
<path d="M7.80318 18.8948C7.80318 19.3829 7.38835 19.7896 6.89055 19.7896C6.39276 19.7896 5.97793 19.3829 5.97793 18.8948C5.97793 18.4067 6.39276 18 6.89055 18C7.38835 18 7.80318 18.4067 7.80318 18.8948ZM6.89055 20.5217C6.35128 20.5217 5.93645 20.9285 5.93645 21.4572C5.93645 21.986 6.35128 22.3927 6.89055 22.3927C7.42983 22.3927 7.84466 21.986 7.84466 21.4572C7.84466 20.9285 7.42983 20.5217 6.89055 20.5217ZM6.89055 23.0435C6.35128 23.0435 5.89497 23.4909 5.89497 24.0197C5.89497 24.5484 6.35128 24.9958 6.89055 24.9958C7.42983 24.9958 7.88614 24.5484 7.88614 24.0197C7.88614 23.4909 7.42983 23.0435 6.89055 23.0435ZM6.89055 25.6059C6.35128 25.6059 5.93645 26.0127 5.93645 26.5414C5.93645 27.0702 6.35128 27.4769 6.89055 27.4769C7.42983 27.4769 7.84466 27.0702 7.84466 26.5414C7.84466 26.0533 7.42983 25.6059 6.89055 25.6059ZM6.89055 28.209C6.39276 28.209 5.97793 28.6158 5.97793 29.1038C5.97793 29.5919 6.39276 29.9986 6.89055 29.9986C7.38835 29.9986 7.80318 29.5919 7.80318 29.1038C7.80318 28.6158 7.38835 28.209 6.89055 28.209ZM9.421 20.3997C8.84025 20.3997 8.34245 20.8878 8.34245 21.4572C8.34245 22.0267 8.84025 22.5147 9.421 22.5147C10.0018 22.5147 10.4996 22.0267 10.4996 21.4572C10.4996 20.8878 10.0018 20.3997 9.421 20.3997ZM9.421 22.9215C8.79876 22.9215 8.30097 23.4096 8.30097 24.0197C8.30097 24.6298 8.79876 25.1178 9.421 25.1178C10.0432 25.1178 10.541 24.6298 10.541 24.0197C10.541 23.4096 10.0432 22.9215 9.421 22.9215ZM9.421 25.4839C8.84025 25.4839 8.34245 25.972 8.34245 26.5414C8.34245 27.1108 8.84025 27.5989 9.421 27.5989C10.0018 27.5989 10.4996 27.1108 10.4996 26.5414C10.4996 25.972 10.0018 25.4839 9.421 25.4839ZM12.0344 22.7995C11.3707 22.7995 10.7899 23.3282 10.7899 24.0197C10.7899 24.6704 11.3292 25.2399 12.0344 25.2399C12.7396 25.2399 13.2789 24.7111 13.2789 24.0197C13.2374 23.3282 12.6981 22.7995 12.0344 22.7995ZM4.31862 20.6438C3.86231 20.6438 3.48897 21.0098 3.48897 21.4572C3.48897 21.9046 3.86231 22.2707 4.31862 22.2707C4.77493 22.2707 5.14828 21.9046 5.14828 21.4572C5.14828 21.0098 4.77493 20.6438 4.31862 20.6438ZM4.31862 23.1655C3.82083 23.1655 3.44748 23.5316 3.44748 24.0197C3.44748 24.5077 3.82083 24.8738 4.31862 24.8738C4.81642 24.8738 5.18976 24.5077 5.18976 24.0197C5.18976 23.5316 4.81642 23.1655 4.31862 23.1655ZM4.31862 25.7279C3.86231 25.7279 3.48897 26.094 3.48897 26.5414C3.48897 26.9888 3.86231 27.3549 4.31862 27.3549C4.77493 27.3549 5.14828 26.9888 5.14828 26.5414C5.14828 26.094 4.77493 25.7279 4.31862 25.7279ZM1.74669 23.2875C1.33186 23.2875 1 23.6129 1 24.0197C1 24.4264 1.33186 24.7518 1.74669 24.7518C2.16152 24.7518 2.49338 24.4264 2.49338 24.0197C2.49338 23.6129 2.16152 23.2875 1.74669 23.2875Z" fill="#ADADAD"/>
<path d="M22.6522 22.4266C22.5692 22.4266 22.4862 22.508 22.4862 22.5893V28.975C22.4862 29.0564 22.5692 29.1377 22.6522 29.1377H23.4403C23.5233 29.1377 23.6063 29.0564 23.6063 28.975V22.5893C23.6063 22.508 23.5233 22.4266 23.4403 22.4266H22.6522ZM23.067 19.7422C22.6522 19.7422 22.3203 20.0676 22.3203 20.4743C22.3203 20.881 22.6522 21.2064 23.067 21.2064C23.4818 21.2064 23.8137 20.881 23.8137 20.4743C23.8137 20.0676 23.4818 19.7422 23.067 19.7422ZM39.3697 22.4266C39.2868 22.4266 39.2038 22.508 39.2038 22.5893V28.975C39.2038 29.0564 39.2868 29.1377 39.3697 29.1377H40.1579C40.2409 29.1377 40.3238 29.0564 40.3238 28.975V22.5893C40.3238 22.508 40.2409 22.4266 40.1579 22.4266H39.3697ZM39.7431 19.7422C39.3283 19.7422 38.9964 20.0676 38.9964 20.4743C38.9964 20.881 39.3283 21.2064 39.7431 21.2064C40.1579 21.2064 40.4898 20.881 40.4898 20.4743C40.4898 20.0676 40.1579 19.7422 39.7431 19.7422ZM47.6248 28.5276C47.6663 28.487 47.6663 28.4463 47.6663 28.4056V28.3649C47.6663 28.3649 47.6663 28.3243 47.6248 28.3243C47.6248 28.3243 47.5833 28.2836 47.5418 28.2836H47.2515V28.853H47.3344V28.6497H47.4589L47.6248 28.853H47.7078L47.5004 28.609C47.5833 28.609 47.6248 28.5683 47.6248 28.5276ZM47.3344 28.5683V28.3649H47.5004C47.5418 28.3649 47.5833 28.3649 47.6248 28.4056C47.6663 28.4056 47.6663 28.4463 47.6663 28.487C47.6663 28.5276 47.6663 28.5683 47.6248 28.5683C47.5833 28.5683 47.5418 28.609 47.5004 28.609H47.3344V28.5683Z" fill="#ADADAD"/>
<path d="M47.4575 28.0437C47.1671 28.0437 46.9182 28.2878 46.9182 28.5725C46.9182 28.8572 47.1671 29.1013 47.4575 29.1013C47.7479 29.1013 47.9968 28.8572 47.9968 28.5725C47.9968 28.2878 47.7479 28.0437 47.4575 28.0437ZM47.4575 29.0606C47.1671 29.0606 46.9597 28.8572 46.9597 28.5725C46.9597 28.2878 47.1671 28.0844 47.4575 28.0844C47.7479 28.0844 47.9553 28.2878 47.9553 28.5725C47.9553 28.8572 47.7064 29.0606 47.4575 29.0606ZM29.1221 23.4883C29.2051 23.4883 29.288 23.407 29.288 23.3256V22.5528C29.288 22.4715 29.2051 22.3901 29.1221 22.3901H27.4628V19.9497C27.4628 19.8684 27.3798 19.7871 27.2969 19.7871H26.5087C26.4257 19.7871 26.3428 19.8684 26.3428 19.9497V22.3901H25.5131C25.4301 22.3901 25.3472 22.4715 25.3472 22.5528V23.3256C25.3472 23.407 25.4301 23.4883 25.5131 23.4883H26.3428V27.1896C26.3428 28.3285 27.1309 29.0606 28.251 29.0606H29.0806C29.1636 29.0606 29.2466 28.9792 29.2466 28.8979V28.1251C29.2466 28.0437 29.1636 27.9624 29.0806 27.9624H28.3754C27.8361 27.9624 27.4628 27.5963 27.4628 27.0269V23.4477H29.1221V23.4883ZM45.6323 23.4883C45.7152 23.4883 45.7982 23.407 45.7982 23.3256V22.5528C45.7982 22.4715 45.7152 22.3901 45.6323 22.3901H43.9729V19.9497C43.9729 19.8684 43.89 19.7871 43.807 19.7871H43.0188C42.9359 19.7871 42.8529 19.8684 42.8529 19.9497V22.3901H42.0233C41.9403 22.3901 41.8573 22.4715 41.8573 22.5528V23.3256C41.8573 23.407 41.9403 23.4883 42.0233 23.4883H42.8529V27.1896C42.8529 28.3285 43.6411 29.0606 44.7611 29.0606H45.5908C45.6737 29.0606 45.7567 28.9792 45.7567 28.8979V28.1251C45.7567 28.0437 45.6737 27.9624 45.5908 27.9624H44.8441C44.3048 27.9624 43.9315 27.5963 43.9315 27.0269V23.4477H45.6323V23.4883ZM17.7143 23.4883V28.9386C17.7143 29.0199 17.7973 29.1013 17.8803 29.1013H18.6684C18.7514 29.1013 18.8344 29.0199 18.8344 28.9386V23.4883H20.6596C20.7426 23.4883 20.8255 23.407 20.8255 23.3256V22.5528C20.8255 22.4715 20.7426 22.3901 20.6596 22.3901H18.8344V20.9666C18.8344 20.3972 19.2492 19.9904 19.747 19.9904H20.6596C20.7426 19.9904 20.8255 19.9091 20.8255 19.8277V19.0549C20.8255 18.9736 20.7426 18.8922 20.6596 18.8922H19.7885C18.627 18.8922 17.7143 19.8277 17.7143 20.9259V22.3901H16.8847C16.8017 22.3901 16.7188 22.4715 16.7188 22.5528V23.3256C16.7188 23.407 16.8017 23.4883 16.8847 23.4883H17.7143ZM36.7135 23.2036C36.0912 22.5528 35.2201 22.1868 34.3075 22.1868C33.4363 22.1868 32.5652 22.5528 32.0259 23.0816V19.0143C32.0259 18.9329 31.9429 18.8516 31.86 18.8516H31.0718C30.9888 18.8516 30.9059 18.9329 30.9059 19.0143V25.7254C30.9059 28.2064 32.6067 29.3046 34.266 29.3046C35.9253 29.3046 37.6261 28.2064 37.6261 25.7254C37.6676 24.7492 37.3357 23.8544 36.7135 23.2036ZM34.3075 28.2878C32.6481 28.2878 32.0259 26.9862 32.0259 25.766C32.0259 24.2611 32.9385 23.285 34.3075 23.285C35.6764 23.285 36.589 24.3018 36.589 25.766C36.5475 26.9862 35.9668 28.2878 34.3075 28.2878Z" fill="#ADADAD"/>
</g>
<defs>
<clipPath id="clip0_11470_11578">
<rect width="47" height="12" fill="white" transform="translate(1 18)"/>
</clipPath>
</defs>
</svg>
