<svg width="48" height="48" viewBox="0 0 48 48" fill="none" xmlns="http://www.w3.org/2000/svg">
<g clip-path="url(#clip0_11470_11534)">
<path d="M18.8233 38.205C17.3473 38.205 15.9378 37.3517 15.2983 35.9171L6.33415 15.7843C5.46855 13.8392 6.34253 11.5597 8.28766 10.694C10.2329 9.82837 12.5124 10.7024 13.378 12.6475L22.3421 32.7803C23.2077 34.7256 22.3337 37.0051 20.3886 37.8707C19.896 38.0906 19.3627 38.2045 18.8233 38.205ZM29.7865 38.261C28.4289 38.261 27.1335 37.4763 26.5459 36.1559L17.26 15.3007C16.4631 13.5111 17.2684 11.4165 19.0558 10.6193C20.8431 9.82425 22.94 10.6275 23.7372 12.415L33.023 33.2723C33.8201 35.0619 33.0147 37.1565 31.2273 37.9537C30.7741 38.1566 30.2831 38.2613 29.7865 38.261ZM42.5684 13.9181C42.5683 14.8584 42.1947 15.7603 41.5298 16.4252C40.8648 17.0901 39.963 17.4637 39.0226 17.4637C38.0822 17.4637 37.1804 17.0901 36.5154 16.4252C35.8505 15.7603 35.4769 14.8584 35.4768 13.9181C35.4768 12.9777 35.8504 12.0759 36.5153 11.4109C37.1802 10.746 38.0821 10.3724 39.0224 10.3723C39.4881 10.3723 39.9492 10.464 40.3794 10.6422C40.8096 10.8203 41.2005 11.0815 41.5297 11.4107C41.859 11.74 42.1202 12.1309 42.2984 12.561C42.4766 12.9912 42.5683 13.4524 42.5684 13.9181ZM38.5887 21.7132C38.5887 22.2113 38.4906 22.7045 38.3 23.1647C38.1094 23.6249 37.83 24.043 37.4778 24.3952C37.1257 24.7474 36.7075 25.0268 36.2474 25.2174C35.7872 25.408 35.294 25.5061 34.7959 25.5061C34.2978 25.5062 33.8046 25.4081 33.3444 25.2175C32.8843 25.0269 32.4661 24.7475 32.1139 24.3953C31.7617 24.0431 31.4823 23.625 31.2917 23.1648C31.1011 22.7047 31.003 22.2115 31.003 21.7134C31.003 21.2153 31.1011 20.7221 31.2917 20.2619C31.4823 19.8017 31.7617 19.3836 32.1139 19.0314C32.4661 18.6792 32.8842 18.3998 33.3444 18.2092C33.8046 18.0186 34.2978 17.9205 34.7959 17.9205C35.294 17.9205 35.7872 18.0186 36.2474 18.2092C36.7075 18.3998 37.1257 18.6792 37.4778 19.0314C37.83 19.3836 38.1094 19.8017 38.3 20.2619C38.4906 20.7221 38.5887 21.2152 38.5887 21.7132Z" fill="#ADADAD"/>
</g>
<defs>
<clipPath id="clip0_11470_11534">
<rect width="36.5684" height="36.5684" fill="white" transform="translate(6 6)"/>
</clipPath>
</defs>
</svg>
