<svg width="48" height="48" viewBox="0 0 48 48" fill="none" xmlns="http://www.w3.org/2000/svg">
<path d="M23.8747 40.1896C15.1316 40.1896 7.71654 32.8049 7.64885 24.0056C7.63361 21.8832 8.03977 19.7789 8.8438 17.8146C9.64783 15.8503 10.8337 14.0651 12.3328 12.5625C13.842 11.0169 15.6432 9.78652 17.6319 8.94293C19.6207 8.09933 21.7572 7.65932 23.9174 7.64844C26.0384 7.64651 28.1388 8.06428 30.0977 8.87769C32.0565 9.6911 33.835 10.8841 35.3307 12.3879C36.8515 13.8702 38.0639 15.6389 38.898 17.5919C39.7321 19.545 40.1714 21.6438 40.1907 23.7674C40.21 28.0876 38.5187 32.2398 35.4863 35.3169C32.4538 38.394 28.3267 40.1458 24.0067 40.1896H23.8747ZM23.9255 8.49994C21.8785 8.51201 19.8544 8.93046 17.9704 9.73103C16.0864 10.5316 14.3802 11.6984 12.9508 13.1636C11.5289 14.585 10.4033 16.2746 9.63939 18.1344C8.87544 19.9941 8.48827 21.987 8.50035 23.9975C8.56398 32.3365 15.5912 39.3293 23.8707 39.3293H23.981C28.0772 39.2923 31.9922 37.635 34.87 34.7198C37.7478 31.8045 39.3544 27.8685 39.3385 23.7721C39.3194 21.7603 38.9024 19.7721 38.1116 17.9221C37.3207 16.0721 36.1715 14.3969 34.7304 12.993C33.3164 11.5664 31.6333 10.4347 29.7787 9.66347C27.924 8.89221 25.9341 8.49672 23.9255 8.49994Z" fill="#ADADAD"/>
<path fill-rule="evenodd" clip-rule="evenodd" d="M7.00042 24.0131C6.98469 21.8048 7.40734 19.6154 8.2439 17.5716C9.08045 15.5279 10.3143 13.6704 11.8739 12.107C13.4431 10.5008 15.3158 9.22228 17.3831 8.34559C19.4504 7.46891 21.6712 7.01154 23.9167 7.00001H23.9194C26.1256 6.99802 28.3103 7.43244 30.3478 8.27825C32.3854 9.12405 34.2355 10.3645 35.7917 11.9283C37.3728 13.4704 38.6331 15.3101 39.5002 17.3414C40.3673 19.3727 40.8239 21.5555 40.8439 23.764V23.7667C40.8639 28.2587 39.1055 32.576 35.9526 35.7756C32.7997 38.9751 28.5086 40.7968 24.0169 40.8428H23.8775C14.7736 40.8428 7.07082 33.1671 7.00042 24.0131ZM35.3341 12.3899C33.8384 10.8859 32.0597 9.69281 30.1008 8.87928C28.1418 8.06575 26.0413 7.6479 23.9201 7.6498C21.76 7.66093 19.6236 8.10113 17.635 8.94483C15.6464 9.78853 13.8453 11.0189 12.3362 12.5645C10.8369 14.0671 9.65075 15.8524 8.8466 17.8168C8.04244 19.7812 7.63625 21.8858 7.65157 24.0084C7.71926 32.807 15.1344 40.1923 23.8775 40.1923H24.0095C28.3296 40.1485 32.4568 38.3966 35.4892 35.3194C38.5217 32.2421 40.2129 28.0897 40.1934 23.7694C40.1743 21.6458 39.735 19.547 38.9009 17.5939C38.0668 15.6408 36.855 13.8722 35.3341 12.3899ZM12.9528 13.1649C11.5308 14.5865 10.4053 16.2762 9.6413 18.136C8.87735 19.9959 8.49023 21.9889 8.5024 23.9996C8.56602 32.3386 15.5933 39.3313 23.8727 39.3313H23.9831C28.0794 39.2945 31.9945 37.6373 34.8725 34.722C37.7505 31.8068 39.3571 27.8706 39.3412 23.7742C39.3221 21.7623 38.905 19.774 38.114 17.924C37.323 16.0741 36.1737 14.3989 34.7324 12.995C33.3185 11.5686 31.6355 10.4369 29.781 9.66564C27.9265 8.89438 25.9374 8.49885 23.9289 8.50198C21.8818 8.51395 19.8575 8.93236 17.9734 9.73294C16.0893 10.5335 14.383 11.7003 12.9535 13.1656L12.9528 13.1649ZM23.9303 9.15245C25.8526 9.14958 27.7563 9.52825 29.5312 10.2665C31.3061 11.0048 32.9169 12.088 34.2701 13.4533L34.2742 13.4573L34.2782 13.4614C35.6577 14.8052 36.7577 16.4087 37.5149 18.1794C38.2721 19.9501 38.6715 21.8532 38.6901 23.7789C38.7047 27.7024 37.1658 31.4722 34.4095 34.2645C31.6532 37.0568 27.9037 38.6446 23.9803 38.6808H23.872C15.954 38.6808 9.21446 31.9792 9.15354 23.9955C9.14203 22.0712 9.51261 20.1637 10.2438 18.3837C10.975 16.6037 12.0522 14.9865 13.4131 13.6259L13.4185 13.6191C14.7877 12.2158 16.422 11.0983 18.2264 10.3316C20.0309 9.56482 21.9697 9.16403 23.9303 9.15245Z" fill="#ADADAD"/>
<path d="M11.3047 28.6808V19.1748H13.6169V20.0263H12.3904V27.8462H13.6175V28.6977L11.3047 28.6808ZM19.1537 23.8344C19.1537 25.5672 18.1018 26.5554 16.675 26.5554C15.2488 26.5554 14.2992 25.444 14.2992 23.9237C14.2992 22.3351 15.2955 21.2149 16.7514 21.2149C18.2081 21.2149 19.1537 22.3818 19.1537 23.8344ZM15.2955 23.9109C15.2955 24.9627 15.8235 25.7973 16.7305 25.7973C17.6375 25.7973 18.1573 24.9458 18.1573 23.8723C18.1573 22.8976 17.6761 21.9771 16.7305 21.9771C15.7849 21.9771 15.2867 22.8678 15.2867 23.9325L15.2955 23.9109ZM19.9544 21.3936C20.4079 21.3158 20.8661 21.2772 21.3257 21.2785C21.8421 21.2282 22.3612 21.3431 22.8081 21.6068C22.9756 21.7055 23.1137 21.8471 23.208 22.017C23.3024 22.187 23.3496 22.3791 23.3448 22.5734C23.3387 22.826 23.2531 23.0703 23.1001 23.2715C22.9471 23.4726 22.7345 23.6203 22.4926 23.6936C22.7874 23.7534 23.0523 23.9134 23.2426 24.1463C23.4328 24.3792 23.5366 24.6708 23.5364 24.9715C23.5397 25.1752 23.4966 25.3769 23.4103 25.5614C23.3239 25.7459 23.1967 25.9083 23.0382 26.0363C22.672 26.3598 22.0628 26.5168 21.1213 26.5168C20.7341 26.5195 20.3477 26.4965 19.9632 26.4491L19.9544 21.3936ZM20.8912 23.4337H21.3724C22.0243 23.4337 22.3904 23.1271 22.3904 22.6891C22.3904 22.2498 22.0249 21.9818 21.4239 21.9818C21.2438 21.975 21.0645 21.9886 20.8871 22.0197L20.8912 23.4337ZM20.8912 25.8102C21.057 25.8271 21.2228 25.8345 21.39 25.8318C21.9945 25.8318 22.5312 25.6017 22.5312 24.9797C22.5312 24.3583 22.0114 24.1282 21.3602 24.1282H20.8912V25.8102ZM25.3971 21.3259H26.3379V24.6859C26.3379 26.1127 25.6482 26.5899 24.6349 26.5899C24.3637 26.5876 24.0947 26.5414 23.8383 26.4532L23.9533 25.6951C24.1429 25.7547 24.3391 25.7858 24.5368 25.7892C25.0735 25.7892 25.3883 25.5421 25.3883 24.648L25.3971 21.3259ZM29.017 24.1234V24.7752H27.0581V24.1234H29.017ZM33.5913 26.3388C33.1677 26.5078 32.7135 26.5861 32.2578 26.5689C30.6185 26.5689 29.6221 25.5421 29.6221 23.9711C29.6026 23.6049 29.6609 23.2388 29.7931 22.8967C29.9253 22.5547 30.1284 22.2445 30.3891 21.9865C30.6498 21.7286 30.9621 21.5288 31.3055 21.4002C31.649 21.2717 32.0157 21.2173 32.3817 21.2406C32.8194 21.2226 33.2557 21.3011 33.6596 21.4708L33.4511 22.2201C33.1307 22.0839 32.7854 22.0159 32.4372 22.0204C31.3853 22.0204 30.6273 22.6803 30.6273 23.9237C30.6273 25.0568 31.296 25.7892 32.4284 25.7892C32.78 25.7944 33.1291 25.7292 33.4552 25.5976L33.5913 26.3388ZM36.5471 19.1491V28.6808H34.2343V27.8293H35.4608V20.0013H34.2343V19.1484H36.5465L36.5471 19.1491Z" fill="#ADADAD"/>
</svg>
