<svg width="48" height="48" viewBox="0 0 48 48" fill="none" xmlns="http://www.w3.org/2000/svg">
<path fill-rule="evenodd" clip-rule="evenodd" d="M16.5983 10.6345C16.5525 10.6439 16.3274 10.6822 16.0982 10.7195C15.2107 10.8638 14.093 11.3367 13.3565 11.8797C12.023 12.8625 11.0889 14.3149 10.7286 15.9653C10.6303 16.4153 10.625 16.8301 10.625 24.0044C10.625 31.1785 10.6303 31.5933 10.7286 32.0434C11.2482 34.4234 12.9426 36.3287 15.1901 37.0602C16.1995 37.3885 15.8157 37.3747 23.9608 37.3747C31.0743 37.3747 31.4866 37.3694 31.9345 37.2707C34.3035 36.7487 36.1998 35.0463 36.9279 32.7882C37.2548 31.7741 37.241 32.1597 37.241 23.9764C37.241 16.8295 37.2356 16.4153 37.1375 15.9653C36.5668 13.3511 34.6717 11.4127 32.0456 10.7568C31.5779 10.64 31.5018 10.6387 24.1275 10.6281C20.0323 10.6222 16.6442 10.625 16.5983 10.6345ZM27.4337 16.5035C29.5179 18.0985 31.0849 20.1447 31.7399 22.1266C32.0325 23.0121 32.1072 23.4471 32.1403 24.4607C32.1735 25.4768 32.1187 26.0273 31.913 26.741L31.7887 27.1717L31.9223 27.3326C32.1549 27.6126 32.6361 28.3721 32.8381 28.7775C33.3173 29.7399 33.4908 30.7974 33.2986 31.5853L33.2027 31.9786L32.6937 31.4634C32.1446 30.9077 31.749 30.6583 31.182 30.5098C30.4769 30.3254 30.0562 30.4175 28.7488 31.0436C27.175 31.7971 26.41 31.9876 24.9564 31.9876C22.203 31.9876 19.7129 31.0976 17.4596 29.3082C16.8234 28.803 15.8075 27.7551 15.3088 27.0894C14.6912 26.2655 14.6888 26.2511 15.222 26.579C16.2479 27.2098 17.6719 27.8279 18.7452 28.1082C19.7127 28.3608 20.2814 28.4329 21.3214 28.4349C22.444 28.4369 23.0888 28.3435 23.9684 28.0509C24.5262 27.8656 25.2669 27.5343 25.2661 27.4706C25.2659 27.4525 25.1723 27.3833 25.0578 27.3168C24.2633 26.8554 22.1058 24.7875 20.3672 22.8207C19.059 21.3409 16.5983 18.3768 16.5983 18.2806C16.5983 18.2608 16.7546 18.3767 16.9456 18.5382C18.9322 20.2179 21.9527 22.4671 23.4607 23.3897L23.8497 23.6276L23.5425 23.2996C22.5813 22.2731 21.105 20.3988 19.4607 18.1176L18.8593 17.2833L19.5025 17.8734C21.2659 19.4911 24.4852 22.0407 27.194 23.9646L27.871 24.4456L27.9566 24.183C28.3627 22.9395 28.4583 21.4083 28.2118 20.0961C27.9661 18.7885 27.3529 17.2931 26.5916 16.1457C26.4435 15.9225 26.3224 15.7256 26.3224 15.7083C26.3224 15.6714 26.6924 15.9362 27.4337 16.5035Z" fill="#ADADAD"/>
</svg>
