<svg width="48" height="48" viewBox="0 0 48 48" fill="none" xmlns="http://www.w3.org/2000/svg">
<path d="M15.4312 31.112C15.4312 31.0349 16.3527 29.4233 16.3527 29.4233C16.5498 29.3538 16.7773 29.3138 17.0134 29.3138C17.6388 29.3138 18.1995 29.5937 18.5764 30.0345L18.5783 30.0373C18.1338 30.8436 17.7016 31.5214 17.2323 32.1696L17.2732 32.1097C17.0667 32.3181 16.7801 32.4476 16.4631 32.4476C16.3689 32.4476 16.2785 32.4362 16.1909 32.4152L16.1985 32.4171C15.7283 32.3296 15.3779 31.9221 15.3779 31.4338C15.3779 31.3186 15.397 31.2082 15.4332 31.1054L15.4312 31.112ZM12.13 18.2924V31.1891C12.1509 33.5128 14.0291 35.39 16.3499 35.4109H17.0429C17.0429 35.3338 17.9643 33.7222 19.9596 30.3448C20.1899 29.884 20.4965 29.4233 20.8039 28.8864H15.1999C15.1809 28.8874 15.158 28.8883 15.1352 28.8883C14.6135 28.8883 14.1757 28.5323 14.05 28.0497L14.0481 28.0421C14.0233 27.9554 14.0091 27.8564 14.0091 27.7536C14.0091 27.1492 14.4984 26.6599 15.1028 26.6599C15.1095 26.6599 15.1162 26.6599 15.1238 26.6599H17.9634L21.5712 20.3648C21.5712 20.3648 20.7268 18.8293 20.4965 18.4457C20.3908 18.2772 20.328 18.0725 20.328 17.8526C20.328 17.5452 20.4508 17.2672 20.6507 17.0635C21.1114 16.6027 21.8787 16.3724 22.6469 17.6004L22.9543 18.0611L23.2618 17.6004C23.9529 16.6027 24.4136 16.6789 24.7973 16.756C25.4113 16.9093 25.7949 17.6004 25.258 18.6751L20.4984 26.6589H22.1109C22.6478 25.7374 23.1857 24.8169 23.7235 23.8184C23.6588 23.5728 23.6216 23.291 23.6216 23.0007C23.6216 22.856 23.6312 22.7132 23.6492 22.5732L23.6473 22.5894C23.7492 21.9631 24.0234 21.4128 24.4175 20.974L24.4146 20.9769L24.8753 21.7441C25.812 20.2153 26.7621 18.4009 27.594 16.5237L27.7149 16.2172C27.8663 15.8193 27.9548 15.3586 27.9548 14.8778C27.9548 14.5913 27.9234 14.3114 27.8644 14.0421L27.8691 14.0678H16.3546C16.3508 14.0678 16.347 14.0678 16.3422 14.0678C14.0167 14.0678 12.1319 15.9526 12.1319 18.2781C12.1319 18.2829 12.1319 18.2867 12.1319 18.2915V18.2905L12.13 18.2924ZM34.2385 18.2153V31.1882C34.2385 31.191 34.2385 31.1949 34.2385 31.1977C34.2385 33.9478 32.0091 36.1772 29.259 36.1772C29.2552 36.1772 29.2523 36.1772 29.2485 36.1772H24.1052C24.1052 36.1772 23.6445 37.4052 25.1028 37.4052H29.7083C29.7121 37.4052 29.7168 37.4052 29.7206 37.4052C32.8506 37.4052 35.3884 34.8674 35.3884 31.7375C35.3884 31.7327 35.3884 31.7289 35.3884 31.7241V20.4409C35.4655 19.3662 34.5441 18.6751 34.2376 18.2144L34.2385 18.2153ZM16.6592 36.1782H16.2756C16.2728 36.1782 16.2689 36.1782 16.2661 36.1782C13.516 36.1782 11.2866 33.9488 11.2866 31.1987C11.2866 31.1949 11.2866 31.192 11.2866 31.1882V18.2924C11.2866 18.2896 11.2866 18.2858 11.2866 18.2829C11.2866 15.5328 13.516 13.3034 16.2661 13.3034C16.2699 13.3034 16.2728 13.3034 16.2766 13.3034H27.4065C26.9039 12.9597 26.2823 12.7541 25.6131 12.7541C25.515 12.7541 25.4179 12.7589 25.3218 12.7674L25.3342 12.7665C25.1733 12.7969 24.9886 12.815 24.8001 12.815C24.4127 12.815 24.0424 12.7408 23.7026 12.6056L23.7225 12.6123C23.2618 12.2286 23.3389 11.9983 22.6478 11.9983H15.8158C15.812 11.9983 15.8073 11.9983 15.8025 11.9983C12.6726 11.9983 10.1347 14.5361 10.1347 17.666C10.1347 17.6708 10.1347 17.6746 10.1347 17.6794V17.6784V31.6499C10.1338 31.688 10.1328 31.7327 10.1328 31.7784C10.1328 34.7408 12.4841 37.1539 15.4217 37.2539H15.4312C16.1985 37.2539 16.4289 36.6389 16.6592 36.1782ZM28.328 26.6599H30.17C31.3979 26.6599 31.6283 27.2739 31.6283 27.5042C31.7054 28.1182 31.3979 28.8864 30.17 28.8864H29.0181L29.9396 30.4219C30.4765 31.3434 30.2471 31.8041 29.9396 32.1106C29.7226 32.2905 29.4408 32.399 29.1333 32.399C28.5917 32.399 28.129 32.0592 27.9463 31.5813L27.9434 31.5728L26.8687 29.7308C26.1014 31.4195 25.3332 33.2615 24.4117 35.4109H29.1714C31.495 35.39 33.3722 33.5118 33.3932 31.191V17.7555C33.3161 17.6023 33.1628 17.6784 33.0857 17.7555C31.2894 20.3229 29.6911 23.2548 28.4336 26.361L28.328 26.6599ZM32.6269 16.2962C32.9191 16.1382 33.2656 16.0449 33.635 16.0449C33.7397 16.0449 33.8425 16.0525 33.9434 16.0668L33.932 16.0659C34.4051 16.2286 34.7982 16.5228 35.0791 16.9035L35.0838 16.9102C35.4379 17.3909 35.9406 17.7441 36.5241 17.904L36.5431 17.9088C36.8506 17.9859 37.3875 17.1415 37.7711 16.3733C38.0919 15.8469 38.289 15.2139 38.308 14.5361V14.5304C37.931 14.1934 37.4627 13.9497 36.9448 13.8431L36.9258 13.8402C36.7097 13.8974 36.4622 13.9307 36.2061 13.9307C36.1081 13.9307 36.011 13.9259 35.9158 13.9164L35.9282 13.9174C35.3332 13.7098 34.8515 13.3024 34.5526 12.7779L34.546 12.7655C34.0158 12.0887 33.3484 11.5442 32.5831 11.1682L32.5498 11.1539C31.8387 10.8064 31.0134 10.539 30.1471 10.3933L30.0938 10.3857C29.2352 10.1211 28.248 9.96875 27.2256 9.96875C26.9382 9.96875 26.6535 9.98113 26.3718 10.004L26.4089 10.0011C25.6235 10.0525 24.8906 10.1896 24.1909 10.4028L24.2594 10.3847C24.1823 10.3847 24.0291 10.6151 24.1823 10.6151C24.3356 10.6151 24.8734 10.6922 24.8734 10.6922C24.8734 10.6922 24.1823 10.8455 24.1823 10.9997C24.1823 11.1539 24.2594 11.1529 24.3356 11.1529C24.4117 11.1529 26.1014 11.0758 26.7925 11.1529C27.7111 11.3053 28.4793 11.846 28.9344 12.598L28.942 12.6113C29.3113 13.2605 29.5284 14.0382 29.5284 14.8664C29.5284 15.4347 29.4256 15.9792 29.239 16.4818L29.2494 16.4495C28.0976 18.9826 18.9629 34.5656 18.5022 35.6404C18.0414 36.7151 17.8882 37.4062 19.1933 38.0973C20.4984 38.7884 21.1895 38.4809 21.5731 38.0202C22.0338 37.4062 29.9405 17.6004 32.6269 16.2962Z" fill="#ADADAD"/>
</svg>
