<svg width="48" height="48" viewBox="0 0 48 48" fill="none" xmlns="http://www.w3.org/2000/svg">
<path d="M11.4349 28.2353C12.62 29.4757 13.9373 30.5826 15.3635 31.536C18.3113 33.487 21.5712 33.9836 25.0155 33.6821C25.9839 33.5987 26.9435 33.4178 27.9101 33.3078C28.3783 33.2546 28.5539 33.0471 28.5521 32.5665C28.538 28.4623 28.538 24.3576 28.5521 20.2522C28.5365 19.8984 28.3993 19.5607 28.1637 19.2962C26.8654 17.5758 25.5671 15.8554 24.2919 14.119C24.017 13.7448 23.7598 13.6065 23.2668 13.6703C19.1147 14.2113 14.9538 14.6955 10.8017 15.2471C10.1278 15.3357 9.99652 15.1513 10.0001 14.5376C10.0001 13.5621 10.4665 12.8509 11.1653 12.2567C12.813 10.8591 14.803 10.2064 16.864 9.77366C22.3001 8.62613 27.7043 8.69707 33.0376 10.3785C34.2849 10.7516 35.4496 11.359 36.4696 12.1681C37.5107 13.0123 37.8885 14.0587 37.6508 15.3801C36.4589 21.7557 35.2765 28.1336 34.1036 34.5139C33.9772 35.1538 33.6254 35.7271 33.1121 36.1297C31.2321 37.7543 28.9849 38.4992 26.5728 38.7901C23.006 39.2264 19.4996 39.0774 16.2042 37.4262C15.1412 36.9021 14.1953 36.1685 13.4232 35.2695C12.4831 34.168 11.8269 32.9638 11.7719 31.4544C11.74 30.376 11.5484 29.2995 11.4349 28.2353Z" fill="#ADADAD"/>
<path d="M12.189 18.4453C16.5592 20.9674 21.2344 21.3824 25.9931 21.3079C26.8267 21.2955 27.1282 21.4995 27.0909 22.3721C26.9668 25.2099 26.9136 28.0353 26.8515 30.8678C26.8373 31.4672 26.6351 31.7776 25.9948 31.8468C22.9939 32.1678 20.0213 32.0809 17.1959 30.944C14.6667 29.9277 12.8629 28.2996 12.7849 25.256C12.7352 23.2873 12.3947 21.3257 12.1925 19.3587C12.1659 19.1069 12.189 18.8355 12.189 18.4453Z" fill="#ADADAD"/>
<path d="M26.5027 19.936C21.5366 19.9165 16.6804 19.7817 12.4609 16.8854L12.4946 16.5626C13.7663 16.3852 15.038 16.2079 16.3115 16.0305C18.4398 15.7591 20.5859 15.4984 22.7213 15.2324C23.0761 15.1862 23.3989 15.1153 23.6543 15.5002C24.5535 16.8517 25.4793 18.1854 26.3892 19.5298C26.4439 19.6599 26.482 19.7964 26.5027 19.936Z" fill="#ADADAD"/>
</svg>
