<svg width="26" height="24" viewBox="0 0 26 24" fill="none" xmlns="http://www.w3.org/2000/svg">
<path d="M19.4207 0C21.164 0 22.841 0.706667 24.0747 1.97467C25.3097 3.24 26 4.94667 26 6.73333V17.2667C26 20.9867 23.049 24 19.4207 24H6.578C2.9497 24 0 20.9867 0 17.2667V6.73333C0 3.01333 2.9367 0 6.578 0H19.4207ZM20.891 6.93333C20.618 6.91867 20.358 7.01333 20.1617 7.2L14.3 12C13.546 12.6413 12.4657 12.6413 11.7 12L5.85 7.2C5.4457 6.89333 4.8867 6.93333 4.55 7.29333C4.199 7.65333 4.16 8.22667 4.4577 8.62667L4.628 8.8L10.543 13.5333C11.271 14.12 12.1537 14.44 13.078 14.44C13.9997 14.44 14.898 14.12 15.6247 13.5333L21.489 8.72L21.593 8.61333C21.9037 8.22667 21.9037 7.66667 21.5787 7.28C21.398 7.08133 21.1497 6.96 20.891 6.93333Z" fill="#0B0C0D"/>
</svg>
