<svg width="22" height="23" viewBox="0 0 22 23" fill="none" xmlns="http://www.w3.org/2000/svg">
<path d="M15.4218 23C13.4641 22.9727 11.7556 22.3685 10.1577 21.4238C7.91388 20.0969 6.08594 18.3182 4.41432 16.3735C3.02953 14.7642 1.80771 13.0516 0.955308 11.1083C0.321907 9.66502 -0.0711126 8.1693 0.0107356 6.5881C0.11618 4.54856 0.91549 2.81792 2.50526 1.45871C2.90197 1.11962 3.30433 0.786762 3.71234 0.460129C4.48068 -0.15195 5.30727 -0.172783 5.99081 0.514728C7.17872 1.70943 8.12108 3.07871 8.63871 4.68146C8.90859 5.51553 8.71245 6.30002 8.03407 6.90851C7.56436 7.32806 7.06738 7.7203 6.56523 8.10321C5.78656 8.69805 5.51816 9.31587 5.83228 10.239C6.05181 10.895 6.35871 11.5201 6.74514 12.0982C7.8512 13.7204 9.14234 15.1967 10.7845 16.3368C11.1849 16.6141 11.6612 16.8081 12.1287 16.9683C12.8063 17.2018 13.4007 16.9898 13.9087 16.5107C14.2877 16.1515 14.6623 15.7887 15.0634 15.4553C16.2027 14.5099 16.9806 14.405 18.2717 15.1529C19.5371 15.8737 20.6512 16.8211 21.5552 17.9453C22.2189 18.7772 22.1356 19.566 21.334 20.2607C20.4389 21.038 19.5909 21.8743 18.4583 22.357C17.5005 22.7672 16.4679 22.9858 15.4218 23Z" fill="#0B0C0D"/>
</svg>
