<svg width="48" height="48" viewBox="0 0 48 48" fill="none" xmlns="http://www.w3.org/2000/svg">
<path d="M30.0925 5H10.399C9.85071 5 9.40625 5.44446 9.40625 6.30693V42.3214C9.40625 42.5555 9.85071 43 10.399 43H37.5921C38.1404 43 38.5848 42.5555 38.5848 42.3214V13.8065C38.5848 13.3342 38.5217 13.1822 38.4104 13.0702L30.5146 5.17439C30.4026 5.06311 30.2506 5 30.0925 5Z" fill="#E9E9E0"/>
<path d="M30.4453 5.10156V13.142H38.4857L30.4453 5.10156Z" fill="#D9D7CA"/>
<path d="M37.5921 42.9967H10.399C9.85071 42.9967 9.40625 42.5522 9.40625 42.0039V31.4609H38.5848V42.0039C38.5848 42.5522 38.1404 42.9967 37.5921 42.9967Z" fill="#7B7B7B"/>
<path d="M18.1385 37.6414L19.8737 40.963H18.5844L17.4987 38.3837H17.4057L16.2365 40.963H14.9472L16.6823 37.6414L14.8359 34.125H16.1069L17.3127 36.9085H17.4057L18.714 34.125H19.9849L18.1385 37.6414Z" fill="white"/>
<path d="M26.7019 34.125H27.8338V40.9623H26.7019V36.2584L25.1711 40.0618H24.1878L22.6475 36.2584V40.9623H21.5156V34.125H22.6475L24.6791 38.801L26.7019 34.125Z" fill="white"/>
<path d="M30.6787 34.125V40.1181H33.8239V40.9623H29.5469V34.125H30.6787Z" fill="white"/>
<path d="M15.5147 21.2881C15.341 21.2881 15.1672 21.2216 15.0349 21.0893C14.7696 20.824 14.7696 20.3951 15.0349 20.1298L19.1064 16.0584C19.3717 15.793 19.8005 15.793 20.0659 16.0584C20.3312 16.3237 20.3312 16.7525 20.0659 17.0179L15.9944 21.0893C15.8621 21.2216 15.6884 21.2881 15.5147 21.2881Z" fill="#7B7B7B"/>
<path d="M19.5861 25.3584C19.4124 25.3584 19.2387 25.2919 19.1064 25.1596L15.0349 21.0882C14.7696 20.8229 14.7696 20.394 15.0349 20.1287C15.3002 19.8634 15.7291 19.8634 15.9944 20.1287L20.0659 24.2001C20.3312 24.4654 20.3312 24.8943 20.0659 25.1596C19.9335 25.2919 19.7598 25.3584 19.5861 25.3584Z" fill="#7B7B7B"/>
<path d="M27.7256 25.3584C27.5519 25.3584 27.3782 25.2919 27.2459 25.1596C26.9805 24.8943 26.9805 24.4654 27.2459 24.2001L31.3173 20.1287C31.5826 19.8634 32.0115 19.8634 32.2768 20.1287C32.5421 20.394 32.5421 20.8229 32.2768 21.0882L28.2054 25.1596C28.073 25.2919 27.8993 25.3584 27.7256 25.3584Z" fill="#7B7B7B"/>
<path d="M31.797 21.2881C31.6233 21.2881 31.4496 21.2216 31.3173 21.0893L27.2459 17.0179C26.9805 16.7525 26.9805 16.3237 27.2459 16.0584C27.5112 15.793 27.94 15.793 28.2054 16.0584L32.2768 20.1298C32.5421 20.3951 32.5421 20.824 32.2768 21.0893C32.1445 21.2216 31.9708 21.2881 31.797 21.2881Z" fill="#7B7B7B"/>
<path d="M21.6242 26.7144C21.5495 26.7144 21.4728 26.7015 21.3982 26.675C21.0447 26.5502 20.8594 26.1627 20.9843 25.8092L25.0557 14.2735C25.1812 13.9199 25.5667 13.734 25.9215 13.8595C26.2751 13.9844 26.4603 14.3719 26.3355 14.7254L22.264 26.2611C22.1657 26.5407 21.9037 26.7144 21.6242 26.7144Z" fill="#7B7B7B"/>
</svg>
