<svg width="48" height="48" viewBox="0 0 48 48" fill="none" xmlns="http://www.w3.org/2000/svg">
<path d="M33.0906 10.6748C35.5961 8.38494 39.5045 8.45112 41.9276 10.8245C44.2897 13.1507 46.9714 19.5579 36.7681 27.0307C33.8224 29.1891 32.7896 33.4968 32.7248 37.2468C32.7197 37.5688 32.4516 37.8272 32.1227 37.8272H29.4039C29.1001 37.8272 28.8439 37.6055 28.8065 37.3103C28.5376 35.2911 26.7805 33.7805 24.7006 33.7805C22.6207 33.7805 20.8636 35.2911 20.5947 37.3103C20.5573 37.6055 20.3011 37.8272 19.9973 37.8272H17.2461C16.9413 37.8272 16.6836 37.6062 16.644 37.3103C16.3835 35.2856 14.6249 33.767 12.5405 33.767C10.4561 33.767 8.69738 35.2856 8.43691 37.3103C8.39951 37.6055 8.14329 37.8272 7.83944 37.8272H5.01419C4.72543 37.8242 4.47822 37.6237 4.42135 37.3466C2.86978 29.2979 5.75987 22.9542 10.5211 19.6622L12.999 23.8565C13.5991 24.8593 14.6973 25.4754 15.8844 25.4753C16.4492 25.4776 17.0048 25.3353 17.4962 25.0627L18.6587 24.4279H18.6958C20.063 23.606 21.354 22.6683 22.5539 21.6256C22.6838 21.5095 22.7564 21.3443 22.753 21.1721C22.752 20.995 22.6684 20.828 22.5261 20.7187L22.4505 20.664C22.2149 20.5182 21.9048 20.5364 21.6878 20.7187C20.5486 21.7113 19.3244 22.6064 18.0288 23.394L16.8663 24.0334L16.9173 23.9971L16.8524 24.0334C15.8612 24.5742 14.6102 24.2372 14.0411 23.2761L11.4196 18.8369C11.1322 18.343 11.0688 17.7539 11.2448 17.2122C11.4207 16.6705 11.8199 16.2254 12.3459 15.9847C27.6393 8.86106 34.3782 22.7093 39.4266 17.7667C40.4731 16.7467 40.7865 15.2087 40.2199 13.8735C39.6533 12.5384 38.3189 11.6706 36.8422 11.677C36.0551 11.6746 35.289 11.9247 34.6607 12.3889C34.4196 12.5658 34.0823 12.5427 33.8687 12.3345L33.0768 11.5319C32.9618 11.4166 32.897 11.2622 32.8961 11.1011C32.9004 10.9393 32.9704 10.7859 33.0906 10.6748ZM31.9131 20.6766C31.6763 20.1612 31.1035 19.8781 30.5393 19.9977C29.9751 20.1173 29.5732 20.6069 29.5753 21.1721L31.5205 22.1289C31.9863 21.7995 32.15 21.1921 31.9131 20.6766Z" fill="#ADADAD"/>
</svg>
