<svg width="48" height="48" viewBox="0 0 48 48" fill="none" xmlns="http://www.w3.org/2000/svg">
<path fill-rule="evenodd" clip-rule="evenodd" d="M43 15.5089V31.1492C43 33.0557 41.9658 34.8198 40.2816 35.786L27.2566 43.2582C25.5291 44.2492 23.3865 44.2471 21.661 43.2526L8.70877 35.7877C7.03003 34.8202 6 33.0591 6 31.1564V16.9418C6 15.0843 6.98216 13.3582 8.59788 12.3762L21.0422 4.81299C22.7741 3.76042 24.9601 3.72766 26.7243 4.72783L41.6233 13.1746C42.4755 13.6578 43 14.547 43 15.5089ZM35.688 29.5646C35.688 29.946 35.4812 30.2988 35.1443 30.492L25.0276 36.2952C24.6822 36.4934 24.2537 36.493 23.9086 36.2941L13.8412 30.4924C13.5054 30.2989 13.2994 29.9466 13.2994 29.5661V18.5126C13.2994 18.141 13.4959 17.7958 13.819 17.5994L23.5417 11.6909C23.8881 11.4804 24.3252 11.4739 24.6781 11.6739L35.1394 17.6042C35.479 17.7967 35.688 18.1511 35.688 18.5344V29.5646Z" fill="#ADADAD"/>
<path fill-rule="evenodd" clip-rule="evenodd" d="M24.1378 13.3177L15.0286 18.8534V29.2205L24.4721 34.6626L33.9634 29.2182V18.8876L24.1378 13.3177ZM22.6311 10.2626C23.5201 9.72238 24.6421 9.70557 25.5477 10.2189L36.009 16.1492C36.8808 16.6434 37.4172 17.5529 37.4172 18.5367V29.567C37.4172 30.5457 36.8862 31.4513 36.0216 31.9473L25.905 37.7504C25.0182 38.2591 23.9184 38.258 23.0327 37.7476L12.9654 31.9459C12.1035 31.4492 11.5747 30.5452 11.5747 29.5684V18.5149C11.5747 17.5613 12.079 16.6752 12.9084 16.1711L22.6311 10.2626Z" fill="#7B7B7B"/>
</svg>
