<svg width="48" height="48" viewBox="0 0 48 48" fill="none" xmlns="http://www.w3.org/2000/svg">
<path d="M19.3429 33.0582C19.3429 33.0582 17.9976 33.8764 20.278 34.1104C23.0233 34.4604 24.4856 34.4024 27.5241 33.8183C28.1348 34.1923 28.7805 34.5055 29.4523 34.7535C22.6164 37.676 13.9649 34.5785 19.3417 33.0582H19.3429ZM18.4678 29.2596C18.4678 29.2596 17.0066 30.3698 19.286 30.605C22.2664 30.8969 24.6038 30.955 28.6375 30.1379C29.0298 30.5358 29.5101 30.8358 30.0396 31.014C21.7994 33.4683 12.566 31.248 18.4678 29.2607V29.2596ZM34.5973 35.9206C34.5973 35.9206 35.5904 36.7386 33.4872 37.3818C29.5715 38.5521 17.0657 38.9021 13.5592 37.3818C12.332 36.8568 14.6692 36.0966 15.4185 35.9796C16.1787 35.8046 16.5888 35.8046 16.5888 35.8046C15.2435 34.8695 7.64745 37.7328 12.7322 38.5499C26.6994 40.8292 38.2121 37.5568 34.5885 35.9206H34.5973ZM19.975 25.285C19.975 25.285 13.6051 26.8053 17.6956 27.3303C19.4489 27.5643 22.8964 27.5053 26.1109 27.2723C28.7402 27.0382 31.3719 26.5722 31.3719 26.5722C31.3719 26.5722 30.4367 26.9813 29.7936 27.3905C23.3077 29.0857 10.8587 28.3256 14.4242 26.5722C17.4627 25.1111 19.9761 25.2872 19.9761 25.2872L19.975 25.285ZM31.3719 31.655C37.9168 28.2643 34.8783 24.994 32.774 25.402C32.249 25.519 32.0138 25.636 32.0138 25.636C32.0138 25.636 32.1888 25.2861 32.5979 25.169C36.7476 23.7077 40.0201 29.5517 31.2526 31.8299C31.2526 31.8299 31.3106 31.7719 31.3697 31.655H31.3719ZM20.6204 40.8883C26.9313 41.2973 36.5748 40.6542 36.8078 37.6727C36.8078 37.6727 36.3407 38.843 31.607 39.718C26.2302 40.7111 19.5682 40.593 15.6526 39.9521C15.6526 39.9521 16.4707 40.652 20.6204 40.8872V40.8883Z" fill="#ADADAD"/>
<path d="M27.4093 6C27.4093 6 31.033 9.68155 23.9619 15.2334C18.293 19.733 22.6767 22.3044 23.9619 25.227C20.6303 22.2465 18.2351 19.616 19.8712 17.1628C22.2666 13.5381 28.8706 11.7958 27.4093 6ZM25.55 22.7725C27.2453 24.7008 25.083 26.4541 25.083 26.4541C25.083 26.4541 29.4076 24.2338 27.4203 21.4863C25.6091 18.857 24.2047 17.5707 31.8029 13.1881C31.8029 13.1881 19.8232 16.1685 25.55 22.7725Z" fill="#ADADAD"/>
</svg>
