<svg width="48" height="48" viewBox="0 0 48 48" fill="none" xmlns="http://www.w3.org/2000/svg">
<path fill-rule="evenodd" clip-rule="evenodd" d="M21.1028 6H27.8528V9.3H29.6528C30.5528 9.3 31.1528 9.9 31.1528 10.8V17.7L30.2528 18.9L39.5528 35.1L40.9028 40.95C41.0528 41.7 40.1528 42.3 39.5528 41.7L35.2028 37.65L32.2028 32.4C29.8028 33.75 27.2528 34.5 24.4028 34.5C21.5528 34.5 19.0028 33.75 16.7528 32.4L13.7528 37.65L9.40279 41.7C8.80279 42.3 7.75279 41.7 8.05279 40.95L9.40279 35.1L12.8528 28.95C10.6028 26.4 9.40279 22.95 9.40279 19.35C9.40279 18.75 9.40279 18.15 9.55279 17.7H14.0528C13.9028 18.3 13.9028 18.75 13.9028 19.35C13.9028 21.3 14.5028 23.1 15.4028 24.75L18.8528 18.9L17.9528 17.7V10.8C17.9528 9.9 18.5528 9.3 19.4528 9.3H21.2528V6H21.1028ZM22.0028 23.1L19.0028 28.5C20.6528 29.4 22.4528 30 24.4028 30C26.3528 30 28.3028 29.4 29.8028 28.5L26.6528 23.1L25.4528 24.6C24.8528 25.35 23.6528 25.35 23.0528 24.6L22.0028 23.1ZM21.5528 17.7C22.1528 18.75 23.2028 19.35 24.4028 19.35C25.6028 19.35 26.8028 18.75 27.2528 17.7C27.5528 17.25 27.7028 16.65 27.7028 16.05C27.7028 14.25 26.2028 12.75 24.4028 12.75C22.6028 12.75 21.1028 14.25 21.1028 16.05C21.1028 16.65 21.2528 17.25 21.5528 17.7Z" fill="#ADADAD"/>
</svg>
