<svg width="48" height="48" viewBox="0 0 48 48" fill="none" xmlns="http://www.w3.org/2000/svg">
<g clip-path="url(#clip0_774_2024)">
<path d="M12.6979 6.9375H35.3021C38.7292 6.9375 41.5 9.70833 41.5 13.1354V34.8646C41.5 38.2917 38.7292 41.0625 35.3021 41.0625H12.6979C9.27083 41.0625 6.5 38.2917 6.5 34.8646V13.1354C6.5 9.70833 9.27083 6.9375 12.6979 6.9375Z" fill="#ADADAD"/>
<path d="M23.4603 27.4127H18.0353L16.9269 30.8398C16.8978 30.971 16.7811 31.0585 16.6499 31.0439H13.9082C13.7478 31.0439 13.704 30.9564 13.7478 30.7814L18.4436 17.2627C18.4874 17.1168 18.5311 16.9564 18.5894 16.7814C18.6478 16.4752 18.6769 16.1543 18.6769 15.8335C18.6624 15.7606 18.7207 15.6877 18.7936 15.6731C18.8082 15.6731 18.8228 15.6731 18.8374 15.6731H22.5707C22.6874 15.6731 22.7457 15.7168 22.7603 15.7898L28.0832 30.8106C28.1269 30.971 28.0832 31.0439 27.9374 31.0439H24.8894C24.7874 31.0585 24.6853 30.9856 24.6561 30.8835L23.4603 27.4127ZM18.8811 24.4523H22.5853C22.4978 24.146 22.3811 23.7814 22.2499 23.4023C22.1186 23.0085 21.9874 22.5856 21.8561 22.1481C21.7103 21.696 21.579 21.2585 21.4332 20.8064C21.2874 20.3543 21.1561 19.9314 21.0394 19.5085C20.9228 19.1002 20.8207 18.721 20.7186 18.371H20.6894C20.5582 18.9981 20.3978 19.6252 20.1936 20.2523C19.9749 20.9523 19.7561 21.6814 19.5228 22.4106C19.3186 23.1543 19.0999 23.8398 18.8811 24.4523Z" fill="white"/>
<path d="M31.2621 18.167C30.7809 18.1816 30.3142 17.992 29.9642 17.6566C29.6288 17.292 29.4538 16.8108 29.4684 16.3149C29.4538 15.8191 29.6434 15.3524 29.9934 15.017C30.3434 14.6816 30.81 14.5066 31.2913 14.5066C31.86 14.5066 32.2975 14.6816 32.6184 15.017C32.9392 15.367 33.1142 15.8337 33.0996 16.3149C33.1142 16.8108 32.9392 17.292 32.5892 17.6566C32.2538 18.0066 31.758 18.1962 31.2621 18.167ZM29.6288 30.8253V19.5962C29.6288 19.4503 29.6871 19.392 29.8184 19.392H32.7059C32.8371 19.392 32.8955 19.4649 32.8955 19.5962V30.8253C32.8955 30.9858 32.8371 31.0587 32.7059 31.0587H29.8475C29.7017 31.0587 29.6288 30.9712 29.6288 30.8253Z" fill="white"/>
</g>
<defs>
<clipPath id="clip0_774_2024">
<rect width="35" height="34.125" fill="white" transform="translate(6.5 6.9375)"/>
</clipPath>
</defs>
</svg>
