<svg width="48" height="48" viewBox="0 0 48 48" fill="none" xmlns="http://www.w3.org/2000/svg">
<rect x="13.9148" y="12.9395" width="22.1456" height="22.6855" fill="white"/>
<path d="M9.05889 6.49976C7.64565 6.49976 6.5 7.64541 6.5 9.05864V38.9409C6.5 40.3541 7.64565 41.4998 9.05889 41.4998H38.9411C40.3543 41.4998 41.5 40.3541 41.5 38.9409V9.05864C41.5 7.64541 40.3543 6.49976 38.9411 6.49976H9.05889ZM18.4098 13.7406C18.8065 13.7464 19.1925 13.8693 19.5195 14.0939C19.8465 14.3185 20.0998 14.6348 20.2475 15.003C20.3952 15.3711 20.4308 15.7747 20.3498 16.1631C20.2688 16.5514 20.0747 16.9071 19.7921 17.1855C19.5095 17.4638 19.1509 17.6524 18.7613 17.7275C18.3718 17.8027 17.9688 17.7609 17.6029 17.6076C17.237 17.4543 16.9247 17.1963 16.705 16.8659C16.4854 16.5356 16.3684 16.1476 16.3686 15.751C16.3695 15.4846 16.4231 15.2211 16.5264 14.9755C16.6297 14.73 16.7806 14.5074 16.9704 14.3205C17.1601 14.1336 17.385 13.9861 17.6321 13.8866C17.8791 13.787 18.1435 13.7374 18.4098 13.7406ZM32.064 32.9794C29.9934 32.9794 29.0036 31.7488 29.0036 30.0674C29.0013 29.5596 29.072 29.0542 29.2136 28.5666L30.2034 25.026C30.3082 24.6754 30.3587 24.311 30.3532 23.9452C30.3532 22.8042 29.663 22.114 28.5528 22.114C27.1416 22.114 26.212 23.1262 25.7318 25.0778L23.8096 32.7778H20.4496L21.053 30.3558C20.066 31.9798 18.6926 32.985 17 32.985C14.9588 32.985 13.9984 31.809 13.9984 30.038C14.0025 29.5293 14.0631 29.0227 14.179 28.5274L15.7092 22.2736H13.3376L14.0572 19.6136H19.7608L17.5096 28.5442C17.383 28.9915 17.3124 29.4528 17.2996 29.9176C17.2996 30.4888 17.5796 30.6554 18.0192 30.7576C18.2866 30.8178 20.4202 30.7758 21.5822 28.1942L23.0606 22.275H20.6582L21.3792 19.615H26.5116L25.8522 22.6334C26.7524 20.9534 28.5528 19.3546 30.3238 19.3546C32.2152 19.3546 33.7762 20.7014 33.7762 23.283C33.773 24.0245 33.6617 24.7617 33.4458 25.4712L32.484 28.9278C32.3975 29.2311 32.3472 29.5436 32.3342 29.8588C32.3342 30.4594 32.575 30.759 33.0258 30.759C33.4766 30.759 34.045 30.4272 34.7058 28.5974L36.026 29.1084C35.2462 31.8398 33.835 32.9794 32.064 32.9794Z" fill="#ADADAD"/>
</svg>
