<svg width="48" height="48" viewBox="0 0 48 48" fill="none" xmlns="http://www.w3.org/2000/svg">
<path fill-rule="evenodd" clip-rule="evenodd" d="M36.0845 9.31895C35.8423 8.80505 35.3261 8.49829 34.7001 8.49829H32.2846C31.5828 8.49829 31.0598 8.78128 30.7836 9.29065L27.2033 14.5315L30.3376 18.825L35.8083 10.9625C36.4094 10.2302 36.2011 9.57024 36.0845 9.31895Z" fill="#7B7B7B"/>
<path fill-rule="evenodd" clip-rule="evenodd" d="M17.2129 9.23139L17.2095 9.22686C16.6639 8.49902 15.9384 8.49902 15.6995 8.49902H13.3372C12.7316 8.49902 12.2369 8.77635 11.9766 9.26195C11.7106 9.75774 11.7671 10.3554 12.135 10.9089L20.8872 23.0637L10.8242 37.1258C10.4722 37.6544 10.4224 38.243 10.6884 38.7388C10.9488 39.2244 11.4445 39.5018 12.049 39.5018H14.4646C15.0849 39.5018 15.6305 39.1791 15.9033 38.6698L27.1672 23.1192L17.2129 9.23139Z" fill="#ADADAD"/>
<path fill-rule="evenodd" clip-rule="evenodd" d="M37.3119 37.5473L31.2152 29.1709L28.5325 32.8723L33.3546 39.3131L33.4791 39.3697C33.6874 39.4591 33.8866 39.5021 34.0881 39.5021H36.1381C36.6338 39.5021 37.0549 39.2814 37.2926 38.8977C37.5371 38.5015 37.5428 38.0114 37.3119 37.5473Z" fill="#ADADAD"/>
</svg>
