<svg width="48" height="48" viewBox="0 0 48 48" fill="none" xmlns="http://www.w3.org/2000/svg">
<path d="M12.6979 6.9375H35.3021C38.7292 6.9375 41.5 9.70833 41.5 13.1354V34.8646C41.5 38.2917 38.7292 41.0625 35.3021 41.0625H12.6979C9.27083 41.0625 6.5 38.2917 6.5 34.8646V13.1354C6.5 9.70833 9.27083 6.9375 12.6979 6.9375Z" fill="#ADADAD"/>
<path d="M24.9046 15.9062L20.5296 23.125L25.1962 30.7812C25.2254 30.8396 25.24 30.8979 25.2254 30.9562C25.2108 31.0146 25.1525 30.9708 25.065 30.9854H21.7254C21.4921 30.9854 21.3317 30.9708 21.2296 30.825C20.9233 30.2125 20.6025 29.6146 20.2962 29.0021C19.99 28.4042 19.6546 27.7917 19.3046 27.1646C18.9546 26.5375 18.6046 25.9104 18.2546 25.2687H18.2254C17.9192 25.8958 17.5837 26.5229 17.2483 27.15C16.9129 27.7771 16.5775 28.4042 16.2567 29.0167C15.9212 29.6292 15.5858 30.2562 15.2504 30.8542C15.1921 31 15.0754 31.0146 14.915 31.0146H11.7067C11.6483 31.0146 11.6046 31.0437 11.6046 30.9708C11.59 30.9125 11.6046 30.8542 11.6337 30.8104L16.1692 23.3729L11.7504 15.8917C11.7067 15.8333 11.6921 15.775 11.7212 15.7458C11.7504 15.7021 11.8087 15.6875 11.8671 15.6875H15.1775C15.2504 15.6875 15.3233 15.7021 15.3817 15.7167C15.44 15.7458 15.4837 15.7896 15.5275 15.8479C15.8046 16.475 16.1254 17.1021 16.4608 17.7292C16.8108 18.3562 17.1462 18.9687 17.5108 19.5812C17.8608 20.1937 18.1817 20.8062 18.4879 21.4333H18.5171C18.8233 20.7917 19.1442 20.1646 19.465 19.5521C19.7858 18.9396 20.1212 18.3271 20.4567 17.7146C20.7921 17.1021 21.1129 16.475 21.4337 15.8771C21.4483 15.8187 21.4775 15.7604 21.5212 15.7312C21.5796 15.7021 21.6379 15.6875 21.7108 15.7021H24.7879C24.8608 15.6875 24.9337 15.7312 24.9483 15.8042C24.9629 15.8187 24.9337 15.8771 24.9046 15.9062Z" fill="white"/>
<path d="M31.6421 31.2917C30.5629 31.3063 29.4838 31.0875 28.5067 30.6354C27.5879 30.2125 26.8296 29.5125 26.3046 28.6521C25.765 27.7625 25.5025 26.6542 25.5025 25.3271C25.4879 24.2479 25.765 23.1834 26.3046 22.25C26.8588 21.3021 27.6609 20.5146 28.6234 19.9896C29.6442 19.4209 30.8692 19.1438 32.3129 19.1438C32.3859 19.1438 32.4879 19.1438 32.6192 19.1584C32.7504 19.1729 32.8963 19.1729 33.0713 19.1875V14.5792C33.0713 14.4771 33.115 14.4188 33.2171 14.4188H36.1775C36.2504 14.4042 36.3088 14.4625 36.3234 14.5209V28.4334C36.3234 28.6959 36.3379 28.9875 36.3525 29.3084C36.3817 29.6146 36.3963 29.9063 36.4109 30.1542C36.4109 30.2563 36.3671 30.3438 36.265 30.3875C35.5067 30.7084 34.7046 30.9417 33.8879 31.0875C33.1442 31.2188 32.4004 31.2917 31.6421 31.2917ZM33.0713 28.375V21.9584C32.94 21.9292 32.8088 21.9 32.6775 21.8854C32.5171 21.8709 32.3567 21.8563 32.1963 21.8563C31.6275 21.8563 31.0588 21.9729 30.5484 22.2354C30.0525 22.4834 29.6296 22.8479 29.3088 23.3146C28.9879 23.7813 28.8275 24.4084 28.8275 25.1667C28.8129 25.6771 28.9004 26.1875 29.0754 26.6688C29.2213 27.0625 29.44 27.4125 29.7317 27.7042C30.0088 27.9667 30.3442 28.1709 30.7234 28.2875C31.1171 28.4188 31.5254 28.4771 31.9338 28.4771C32.1525 28.4771 32.3567 28.4625 32.5463 28.4479C32.7359 28.4625 32.8963 28.4334 33.0713 28.375Z" fill="white"/>
</svg>
