<svg width="48" height="48" viewBox="0 0 48 48" fill="none" xmlns="http://www.w3.org/2000/svg">
<g clip-path="url(#clip0_774_2043)">
<path fill-rule="evenodd" clip-rule="evenodd" d="M10.7595 29.7959L8.7567 30.5277L8.64951 36.485L15.5817 33.9533C13.2037 33.1545 11.4677 31.7489 10.7595 29.7959Z" fill="#ADADAD"/>
<path fill-rule="evenodd" clip-rule="evenodd" d="M11.8073 23.4946L4.85925 26.0327L8.75758 30.5276L10.7597 29.7958C10.0534 27.8485 10.4885 25.648 11.8073 23.4946Z" fill="#ADADAD"/>
<path fill-rule="evenodd" clip-rule="evenodd" d="M23.5011 14.8981C14.6523 18.1303 8.94773 24.8002 10.7597 29.7959L42.802 18.0907C40.99 13.095 32.3492 11.6658 23.5011 14.8981Z" fill="#ADADAD"/>
<path fill-rule="evenodd" clip-rule="evenodd" d="M30.0612 32.9887C38.9093 29.7558 44.6241 23.1159 42.8025 18.0908L10.759 29.796C12.5812 34.8211 21.2124 36.2209 30.0612 32.9887Z" fill="#ADADAD"/>
<path fill-rule="evenodd" clip-rule="evenodd" d="M42.8025 18.0908L10.759 29.796C11.3862 31.5264 13.7794 32.3788 17.136 32.3788C20.4091 32.3788 24.599 31.5691 28.9669 29.9734C37.8151 26.7412 44.0403 21.5074 42.8012 18.0908" fill="#ADADAD"/>
<path fill-rule="evenodd" clip-rule="evenodd" d="M36.4248 15.5078C33.1517 15.5078 28.9618 16.3175 24.5939 17.9132C15.7458 21.1454 9.52057 26.3785 10.7596 29.7957L42.8019 18.0905C42.1747 16.3602 39.7821 15.5078 36.4248 15.5078Z" fill="#ADADAD"/>
<path fill-rule="evenodd" clip-rule="evenodd" d="M34.6554 36.8007C33.7124 36.8007 32.3221 35.949 30.521 34.2697C28.3919 32.2829 25.9521 29.3728 23.6514 26.0749C21.3513 22.7782 19.4608 19.4815 18.3289 16.7929C17.0963 13.8631 16.9202 12.0619 17.8064 11.4386C18.001 11.3021 18.2352 11.2332 18.5031 11.2332C19.2241 11.2332 20.629 11.7697 23.2264 14.3276L23.2838 14.3831L23.2756 14.4628C23.2577 14.6466 23.2417 14.8323 23.2271 15.0141L23.1984 15.3752L22.9431 15.1187C20.1441 12.2987 18.9121 11.9943 18.5121 11.9943C18.3979 11.9943 18.3073 12.0173 18.2422 12.0632C17.8574 12.3331 17.8326 13.6564 19.0282 16.4962C20.1403 19.137 22.0027 22.3833 24.2728 25.6378C26.5442 28.893 28.9463 31.7603 31.0384 33.7114C33.2938 35.8156 34.3102 36.0428 34.6432 36.0428C34.7581 36.0428 34.8506 36.0185 34.9202 35.9694C35.3253 35.6848 35.3259 34.2671 33.9925 31.2097L33.9312 31.07L34.0652 30.9966C34.1992 30.9232 34.3293 30.8511 34.4506 30.7822L34.6113 30.691L34.6854 30.8601C35.6303 33.0262 36.5139 35.7793 35.3553 36.594C35.16 36.7312 34.9246 36.8007 34.6554 36.8007Z" fill="#ADADAD"/>
<path fill-rule="evenodd" clip-rule="evenodd" d="M30.276 32.8972L30.2633 33.063C30.0393 35.8314 29.4498 39.1587 27.914 39.294C27.8834 39.2966 27.8515 39.2978 27.8196 39.2978C26.7758 39.2978 25.7888 37.8029 24.886 34.8553C24.031 32.0658 23.3675 28.3219 23.0185 24.3106C22.6688 20.3013 22.6739 16.4974 23.0332 13.6014C23.4243 10.4451 24.1695 8.79704 25.2477 8.70198C25.2796 8.69942 25.3128 8.69751 25.3454 8.69751C26.1021 8.69751 27.2428 9.55502 28.4104 13.5465L27.648 13.6932C27.2582 12.3598 26.8332 11.2751 26.4115 10.5286C26.021 9.83957 25.642 9.45995 25.3434 9.45995C25.3332 9.45995 25.3237 9.45995 25.3135 9.46123C24.8464 9.50206 24.1657 10.6358 23.7867 13.6952C23.4338 16.5395 23.4294 20.286 23.7739 24.2443C24.1197 28.2032 24.7718 31.8923 25.6114 34.6313C25.9872 35.8576 26.3994 36.8689 26.8039 37.5547C27.1765 38.1877 27.537 38.536 27.819 38.536C27.8286 38.536 27.8381 38.536 27.8483 38.5347C28.2949 38.4958 29.1378 37.3161 29.4925 33.1658L30.276 32.8972Z" fill="#ADADAD"/>
</g>
<defs>
<clipPath id="clip0_774_2043">
<rect width="38.2815" height="30.6252" fill="white" transform="translate(4.85925 8.6875)"/>
</clipPath>
</defs>
</svg>
