<svg width="48" height="48" viewBox="0 0 48 48" fill="none" xmlns="http://www.w3.org/2000/svg">
<path d="M29.5333 29.5332C32.5893 29.5332 35.0667 27.0559 35.0667 23.9999C35.0667 20.9439 32.5893 18.4666 29.5333 18.4666C26.4774 18.4666 24 20.9439 24 23.9999C24 27.0559 26.4774 29.5332 29.5333 29.5332Z" fill="#ADADAD"/>
<path fill-rule="evenodd" clip-rule="evenodd" d="M18.4667 40.5999C19.9342 40.5999 21.3416 40.0169 22.3793 38.9792C23.417 37.9415 24 36.5341 24 35.0665V29.5332H18.4667C16.9991 29.5332 15.5917 30.1162 14.554 31.1539C13.5163 32.1916 12.9333 33.599 12.9333 35.0665C12.9333 36.5341 13.5163 37.9415 14.554 38.9792C15.5917 40.0169 16.9991 40.5999 18.4667 40.5999Z" fill="#ADADAD"/>
<path fill-rule="evenodd" clip-rule="evenodd" d="M18.4667 29.5332H24V18.4666H18.4667C16.9991 18.4666 15.5917 19.0495 14.554 20.0872C13.5163 21.1249 12.9333 22.5324 12.9333 23.9999C12.9333 25.4674 13.5163 26.8748 14.554 27.9125C15.5917 28.9502 16.9991 29.5332 18.4667 29.5332Z" fill="#ADADAD"/>
<path fill-rule="evenodd" clip-rule="evenodd" d="M18.4667 18.4666H24V7.3999H18.4667C16.9991 7.3999 15.5917 7.98288 14.554 9.02058C13.5163 10.0583 12.9333 11.4657 12.9333 12.9332C12.9333 14.4008 13.5163 15.8082 14.554 16.8459C15.5917 17.8836 16.9991 18.4666 18.4667 18.4666Z" fill="#ADADAD"/>
<path fill-rule="evenodd" clip-rule="evenodd" d="M29.5333 18.4666H24V7.3999H29.5333C31.0009 7.3999 32.4083 7.98288 33.446 9.02058C34.4837 10.0583 35.0667 11.4657 35.0667 12.9332C35.0667 14.4008 34.4837 15.8082 33.446 16.8459C32.4083 17.8836 31.0009 18.4666 29.5333 18.4666Z" fill="#ADADAD"/>
</svg>
