<svg width="303" height="117" viewBox="0 0 303 117" fill="none" xmlns="http://www.w3.org/2000/svg">
<path d="M7.05264 111.984V103.584H8.99664V110.4H13.2086V111.984H7.05264ZM14.1745 111.984V105.528H16.0465V111.984H14.1745ZM15.1105 104.628C14.7665 104.628 14.4865 104.528 14.2705 104.328C14.0545 104.128 13.9465 103.88 13.9465 103.584C13.9465 103.288 14.0545 103.04 14.2705 102.84C14.4865 102.64 14.7665 102.54 15.1105 102.54C15.4545 102.54 15.7345 102.636 15.9505 102.828C16.1665 103.012 16.2745 103.252 16.2745 103.548C16.2745 103.86 16.1665 104.12 15.9505 104.328C15.7425 104.528 15.4625 104.628 15.1105 104.628ZM19.5359 111.984L16.8239 105.528H18.7559L21.0119 111.084H20.0519L22.3919 105.528H24.1919L21.4679 111.984H19.5359ZM27.984 112.08C27.248 112.08 26.6 111.936 26.04 111.648C25.488 111.36 25.06 110.968 24.756 110.472C24.452 109.968 24.3 109.396 24.3 108.756C24.3 108.108 24.448 107.536 24.744 107.04C25.048 106.536 25.46 106.144 25.98 105.864C26.5 105.576 27.088 105.432 27.744 105.432C28.376 105.432 28.944 105.568 29.448 105.84C29.96 106.104 30.364 106.488 30.66 106.992C30.956 107.488 31.104 108.084 31.104 108.78C31.104 108.852 31.1 108.936 31.092 109.032C31.084 109.12 31.076 109.204 31.068 109.284H25.824V108.192H30.084L29.364 108.516C29.364 108.18 29.296 107.888 29.16 107.64C29.024 107.392 28.836 107.2 28.596 107.064C28.356 106.92 28.076 106.848 27.756 106.848C27.436 106.848 27.152 106.92 26.904 107.064C26.664 107.2 26.476 107.396 26.34 107.652C26.204 107.9 26.136 108.196 26.136 108.54V108.828C26.136 109.18 26.212 109.492 26.364 109.764C26.524 110.028 26.744 110.232 27.024 110.376C27.312 110.512 27.648 110.58 28.032 110.58C28.376 110.58 28.676 110.528 28.932 110.424C29.196 110.32 29.436 110.164 29.652 109.956L30.648 111.036C30.352 111.372 29.98 111.632 29.532 111.816C29.084 111.992 28.568 112.08 27.984 112.08ZM38.6408 112.128C37.9688 112.128 37.3248 112.04 36.7088 111.864C36.0928 111.68 35.5968 111.444 35.2208 111.156L35.8808 109.692C36.2408 109.948 36.6648 110.16 37.1528 110.328C37.6488 110.488 38.1488 110.568 38.6528 110.568C39.0368 110.568 39.3448 110.532 39.5768 110.46C39.8168 110.38 39.9928 110.272 40.1048 110.136C40.2168 110 40.2728 109.844 40.2728 109.668C40.2728 109.444 40.1848 109.268 40.0088 109.14C39.8328 109.004 39.6008 108.896 39.3128 108.816C39.0248 108.728 38.7048 108.648 38.3528 108.576C38.0088 108.496 37.6608 108.4 37.3088 108.288C36.9648 108.176 36.6488 108.032 36.3608 107.856C36.0728 107.68 35.8368 107.448 35.6528 107.16C35.4768 106.872 35.3888 106.504 35.3888 106.056C35.3888 105.576 35.5168 105.14 35.7728 104.748C36.0368 104.348 36.4288 104.032 36.9488 103.8C37.4768 103.56 38.1368 103.44 38.9288 103.44C39.4568 103.44 39.9768 103.504 40.4888 103.632C41.0008 103.752 41.4528 103.936 41.8448 104.184L41.2448 105.66C40.8528 105.436 40.4608 105.272 40.0688 105.168C39.6768 105.056 39.2928 105 38.9168 105C38.5408 105 38.2328 105.044 37.9928 105.132C37.7528 105.22 37.5808 105.336 37.4768 105.48C37.3728 105.616 37.3208 105.776 37.3208 105.96C37.3208 106.176 37.4088 106.352 37.5848 106.488C37.7608 106.616 37.9928 106.72 38.2808 106.8C38.5688 106.88 38.8848 106.96 39.2288 107.04C39.5808 107.12 39.9288 107.212 40.2728 107.316C40.6248 107.42 40.9448 107.56 41.2328 107.736C41.5208 107.912 41.7528 108.144 41.9288 108.432C42.1128 108.72 42.2048 109.084 42.2048 109.524C42.2048 109.996 42.0728 110.428 41.8088 110.82C41.5448 111.212 41.1488 111.528 40.6208 111.768C40.1008 112.008 39.4408 112.128 38.6408 112.128ZM47.3611 111.984V110.724L47.2411 110.448V108.192C47.2411 107.792 47.1171 107.48 46.8691 107.256C46.6291 107.032 46.2571 106.92 45.7531 106.92C45.4091 106.92 45.0691 106.976 44.7331 107.088C44.4051 107.192 44.1251 107.336 43.8931 107.52L43.2211 106.212C43.5731 105.964 43.9971 105.772 44.4931 105.636C44.9891 105.5 45.4931 105.432 46.0051 105.432C46.9891 105.432 47.7531 105.664 48.2971 106.128C48.8411 106.592 49.1131 107.316 49.1131 108.3V111.984H47.3611ZM45.3931 112.08C44.8891 112.08 44.4571 111.996 44.0971 111.828C43.7371 111.652 43.4611 111.416 43.2691 111.12C43.0771 110.824 42.9811 110.492 42.9811 110.124C42.9811 109.74 43.0731 109.404 43.2571 109.116C43.4491 108.828 43.7491 108.604 44.1571 108.444C44.5651 108.276 45.0971 108.192 45.7531 108.192H47.4691V109.284H45.9571C45.5171 109.284 45.2131 109.356 45.0451 109.5C44.8851 109.644 44.8051 109.824 44.8051 110.04C44.8051 110.28 44.8971 110.472 45.0811 110.616C45.2731 110.752 45.5331 110.82 45.8611 110.82C46.1731 110.82 46.4531 110.748 46.7011 110.604C46.9491 110.452 47.1291 110.232 47.2411 109.944L47.5291 110.808C47.3931 111.224 47.1451 111.54 46.7851 111.756C46.4251 111.972 45.9611 112.08 45.3931 112.08ZM51.0354 111.984V105.384C51.0354 104.656 51.2514 104.076 51.6834 103.644C52.1154 103.204 52.7314 102.984 53.5314 102.984C53.8034 102.984 54.0634 103.012 54.3114 103.068C54.5674 103.124 54.7834 103.212 54.9594 103.332L54.4674 104.688C54.3634 104.616 54.2474 104.56 54.1194 104.52C53.9914 104.48 53.8554 104.46 53.7114 104.46C53.4394 104.46 53.2274 104.54 53.0754 104.7C52.9314 104.852 52.8594 105.084 52.8594 105.396V105.996L52.9074 106.8V111.984H51.0354ZM50.0394 107.112V105.672H54.5154V107.112H50.0394ZM58.57 112.08C57.834 112.08 57.186 111.936 56.626 111.648C56.074 111.36 55.646 110.968 55.342 110.472C55.038 109.968 54.886 109.396 54.886 108.756C54.886 108.108 55.034 107.536 55.33 107.04C55.634 106.536 56.046 106.144 56.566 105.864C57.086 105.576 57.674 105.432 58.33 105.432C58.962 105.432 59.53 105.568 60.034 105.84C60.546 106.104 60.95 106.488 61.246 106.992C61.542 107.488 61.69 108.084 61.69 108.78C61.69 108.852 61.686 108.936 61.678 109.032C61.67 109.12 61.662 109.204 61.654 109.284H56.41V108.192H60.67L59.95 108.516C59.95 108.18 59.882 107.888 59.746 107.64C59.61 107.392 59.422 107.2 59.182 107.064C58.942 106.92 58.662 106.848 58.342 106.848C58.022 106.848 57.738 106.92 57.49 107.064C57.25 107.2 57.062 107.396 56.926 107.652C56.79 107.9 56.722 108.196 56.722 108.54V108.828C56.722 109.18 56.798 109.492 56.95 109.764C57.11 110.028 57.33 110.232 57.61 110.376C57.898 110.512 58.234 110.58 58.618 110.58C58.962 110.58 59.262 110.528 59.518 110.424C59.782 110.32 60.022 110.164 60.238 109.956L61.234 111.036C60.938 111.372 60.566 111.632 60.118 111.816C59.67 111.992 59.154 112.08 58.57 112.08ZM65.5763 112.08C64.8163 112.08 64.2243 111.888 63.8003 111.504C63.3763 111.112 63.1643 110.532 63.1643 109.764V104.1H65.0363V109.74C65.0363 110.012 65.1083 110.224 65.2523 110.376C65.3963 110.52 65.5923 110.592 65.8403 110.592C66.1363 110.592 66.3883 110.512 66.5963 110.352L67.1003 111.672C66.9083 111.808 66.6763 111.912 66.4043 111.984C66.1403 112.048 65.8643 112.08 65.5763 112.08ZM62.1683 107.112V105.672H66.6443V107.112H62.1683ZM68.8499 114.408C68.5139 114.408 68.1819 114.356 67.8539 114.252C67.5259 114.148 67.2579 114.004 67.0499 113.82L67.7339 112.488C67.8779 112.616 68.0419 112.716 68.2259 112.788C68.4179 112.86 68.6059 112.896 68.7899 112.896C69.0539 112.896 69.2619 112.832 69.4139 112.704C69.5739 112.584 69.7179 112.38 69.8459 112.092L70.1819 111.3L70.3259 111.096L72.6419 105.528H74.4419L71.5259 112.38C71.3179 112.9 71.0779 113.308 70.8059 113.604C70.5419 113.9 70.2459 114.108 69.9179 114.228C69.5979 114.348 69.2419 114.408 68.8499 114.408ZM69.9539 112.236L67.0739 105.528H69.0059L71.2379 110.928L69.9539 112.236Z" fill="black"/>
<path d="M40.8853 54.5768C41.4213 53.6389 41.8634 52.82 42.3592 52.0407C43.793 49.7292 45.8163 48.0121 48.2148 46.7572C51.4039 45.093 54.6198 43.4815 57.8357 41.8832C61.7216 39.968 65.6343 38.1056 69.5067 36.1771C70.1767 35.8469 70.2705 36.1903 70.3777 36.6526C70.4179 36.8508 70.3911 37.0621 70.3911 37.2734C70.3911 49.8877 70.3777 62.502 70.4045 75.1162C70.4045 75.9484 70.1499 76.371 69.3727 76.7409C66.0764 78.3127 62.8337 79.9638 59.5643 81.6017C55.8928 83.4377 52.2079 85.2473 48.5766 87.1493C46.5533 88.206 44.5836 89.3948 43.0426 91.1251C42.654 91.5742 42.3324 92.0761 41.8634 92.7102C42.2118 92.6309 42.386 92.6309 42.52 92.5649C44.4362 91.6931 46.3255 90.7817 48.2684 89.9495C50.4258 89.0381 52.6233 88.206 54.8074 87.3474C57.3131 86.3436 59.8188 85.3529 62.3246 84.3491C64.4015 83.5169 66.4918 82.6716 68.5687 81.8262C70.2169 81.1526 71.8784 80.4921 73.4998 79.7657C73.7946 79.6336 74.0626 79.1977 74.1028 78.8675C74.1966 78.207 74.1296 77.5334 74.1296 76.873C74.1296 65.8702 74.1296 54.8806 74.1162 43.8778C74.1162 43.2173 74.2502 42.7814 74.9335 42.5437C75.8179 42.2267 76.7023 41.8568 77.5464 41.4474C78.0422 41.2096 78.136 41.4209 78.203 41.804C78.2298 41.9757 78.2164 42.1606 78.2164 42.3456C78.2164 55.3165 78.2164 68.3006 78.2298 81.2715C78.2298 81.9715 78.0556 82.3017 77.3053 82.5659C74.3976 83.583 71.5301 84.7321 68.6358 85.8152C65.5003 86.9776 62.3648 88.1135 59.2293 89.2759C56.2412 90.3854 53.2665 91.5082 50.2784 92.6177C49.327 92.9743 48.3354 93.2649 47.3841 93.6347C47.1027 93.7404 46.8213 93.9914 46.6605 94.2423C45.8163 95.5632 44.6506 96.3689 43.0694 96.7388C41.2337 97.1615 39.4649 97.0822 37.7632 96.3557C37.0396 96.0519 36.2222 95.5764 35.847 94.9556C35.2843 94.0178 34.4669 93.6612 33.5557 93.3177C31.117 92.4063 28.6783 91.5082 26.2396 90.61C23.8678 89.7382 21.4827 88.8928 19.1244 88.0211C16.8063 87.1625 14.5016 86.2643 12.1834 85.4058C9.53032 84.4151 6.86381 83.4509 4.1973 82.4999C3.60772 82.2885 3.54072 81.9055 3.54072 81.3903C3.55412 73.0953 3.55412 64.7871 3.55412 56.492C3.55412 51.7369 3.55412 46.9818 3.55412 42.2267C3.55412 41.2492 3.67472 41.17 4.55909 41.553C5.41666 41.9229 6.28763 42.3191 7.1184 42.755C7.3328 42.8739 7.49359 43.1645 7.60079 43.4022C7.68118 43.574 7.61419 43.8117 7.61419 44.0098C7.61419 55.2636 7.61419 66.5174 7.61419 77.7712C7.61419 79.977 7.38639 79.4487 9.38293 80.3204C11.5269 81.2582 13.7512 82.0376 15.9219 82.8961C18.4008 83.8868 20.8797 84.9038 23.3587 85.9077C26.387 87.1361 29.4019 88.3513 32.4302 89.5665C34.2525 90.3062 36.0748 91.0194 37.8838 91.7723C38.326 91.9573 38.7145 92.2479 39.1433 92.4856C39.3175 92.5913 39.5185 92.6573 39.7061 92.7366C39.7597 92.6705 39.8133 92.6045 39.8669 92.5516C39.4917 92.0629 39.1701 91.5478 38.7413 91.0987C36.852 89.1042 34.4937 87.7437 32.0684 86.5153C25.449 83.1867 18.8028 79.911 12.1566 76.6088C11.5403 76.2918 11.3929 75.8031 11.3929 75.1558C11.4063 69.1987 11.3929 63.2284 11.3929 57.2713C11.3929 50.6142 11.3929 43.957 11.3929 37.3131C11.3929 37.0753 11.3259 36.8243 11.4197 36.6262C11.5671 36.2696 11.6073 35.8205 12.3174 36.1771C17.7308 38.8849 23.1711 41.553 28.6113 44.1948C30.983 45.3439 33.3815 46.4534 35.5657 47.9724C37.7096 49.465 39.2103 51.4463 40.3895 53.705C40.5101 53.9427 40.6575 54.1805 40.8853 54.5768ZM15.3859 42.0682C15.3591 42.4644 15.3189 42.7418 15.3189 43.0192C15.3189 46.4667 15.3189 49.9009 15.3189 53.3484C15.3189 59.8999 15.3189 66.4513 15.3189 73.0028C15.3189 73.4519 15.3055 73.835 15.8281 74.0859C17.9988 75.1294 20.1428 76.1993 22.3001 77.256C26.052 79.1052 29.8172 80.928 33.5423 82.8301C36.517 84.3491 38.7815 86.6078 40.2689 89.6061C40.4431 89.9495 40.6575 90.2665 40.8987 90.7024C41.1131 90.3458 41.2605 90.1345 41.3811 89.9231C42.4664 87.9286 43.6724 86.0134 45.5751 84.6793C47.1295 83.5962 48.7374 82.5659 50.4392 81.7073C55.5042 79.1449 60.6362 76.688 65.7414 74.1916C66.2372 73.9539 66.465 73.6633 66.4516 73.0953C66.4382 63.0567 66.4382 53.0049 66.4382 42.9664C66.4382 42.7022 66.3846 42.438 66.3578 42.0682C60.0868 45.225 53.8962 48.2366 47.7994 51.4331C45.0793 52.8596 42.7076 54.7881 41.3275 57.6412C41.2605 57.7733 41.0327 57.9318 40.9255 57.9186C40.7513 57.8789 40.5771 57.7204 40.4833 57.5619C40.2823 57.2449 40.1483 56.8883 39.9473 56.5713C38.192 53.956 35.6862 52.186 32.9259 50.7859C27.1507 47.8404 21.3353 45.0137 15.3859 42.0682Z" fill="#D12E2E"/>
<path d="M81.8073 24.7118C80.6684 25.293 79.7572 25.7553 78.8326 26.2044C78.2966 26.4686 77.7338 26.6667 77.2381 26.9837C76.5413 27.4328 76.1527 27.1554 75.6703 26.6271C73.9552 24.7118 72.307 22.7305 70.4445 20.987C68.0192 18.7151 65.3393 16.747 62.3378 15.2412C59.9258 14.0392 57.4603 12.8901 54.9412 11.9391C53.2261 11.2918 51.3635 11.0145 49.568 10.5654C45.9635 9.66718 42.2786 9.50868 38.5938 9.70681C36.49 9.81248 34.3863 10.1955 32.3094 10.5786C30.621 10.8956 28.9193 11.2522 27.3113 11.8466C24.8726 12.7316 22.4473 13.709 20.1158 14.8714C15.4661 17.1829 11.4999 20.3926 8.01597 24.1967C7.2656 25.0024 6.59562 25.8874 5.92564 26.7592C5.61745 27.1686 5.37626 27.3007 4.85368 27.0233C3.32613 26.2176 1.75838 25.4911 0.0566406 24.6722C8.81995 13.1278 20.156 5.8763 34.7079 4.29126C54.2176 2.16467 69.7477 9.36338 81.8073 24.7118Z" fill="#1775D1"/>
<path d="M12.4513 30.7499C13.1481 29.9442 13.7109 29.2573 14.3273 28.6101C17.8246 24.8721 21.9784 22.0454 26.7353 20.117C28.5576 19.3773 30.5005 18.9282 32.4167 18.413C34.641 17.8054 36.9457 17.6998 39.2236 17.3828C41.2068 17.1054 43.1363 17.3828 45.0256 17.5941C50.0237 18.1753 54.8341 19.6018 59.189 22.1643C60.9577 23.2078 62.6327 24.423 64.2004 25.7438C65.7816 27.0779 67.1885 28.6365 68.6625 30.1027C69.319 30.7631 69.2788 30.882 68.4615 31.2783C67.1081 31.9123 65.728 32.5199 64.4014 33.2067C63.919 33.4577 63.6644 33.352 63.3294 33.035C62.0163 31.8066 60.7433 30.5386 59.3498 29.4026C56.978 27.4742 54.3383 25.9816 51.377 25.0702C49.7021 24.5551 48.0271 24.0399 46.3254 23.6305C45.3472 23.3927 44.3289 23.3135 43.3239 23.2606C42.0509 23.1946 40.7646 23.2342 39.4916 23.2342C37.4013 23.221 35.3646 23.5512 33.3814 24.1324C31.4117 24.7136 29.3884 25.2551 27.5526 26.1401C25.5561 27.1175 23.6802 28.3856 21.8712 29.6932C20.5447 30.6575 19.4191 31.8991 18.1863 32.9822C18.0255 33.1275 17.6638 33.2331 17.4896 33.1671C15.8682 32.4142 14.2603 31.6217 12.4513 30.7499Z" fill="#1775D1"/>
<path d="M56.7364 36.9176C54.9006 37.829 53.1855 38.7008 51.4435 39.5197C51.2425 39.6122 50.8941 39.4801 50.6529 39.3612C49.3264 38.6876 48.0534 37.895 46.6733 37.3403C45.5879 36.9044 44.3954 36.7195 43.243 36.4949C42.4122 36.3364 41.5413 36.1779 40.7105 36.2175C37.2668 36.376 34.0375 37.2214 31.1968 39.2555C30.835 39.5197 30.5804 39.5461 30.165 39.3348C28.4499 38.4498 26.7079 37.6177 24.966 36.7723C28.3963 33.3513 32.5502 31.5285 37.2266 30.7492C42.2514 29.9038 47.0217 30.8284 51.5239 33.0343C53.4401 33.9721 55.2624 35.1741 56.7364 36.9176Z" fill="#1775D1"/>
<path d="M40.6439 75.328C40.3759 75.328 40.1481 75.328 39.7193 75.328C39.505 70.9824 39.2906 66.6235 39.0628 62.1854C39.8265 62.1854 40.4161 62.1986 41.0191 62.1854C41.5283 62.1722 41.6355 62.4232 41.5685 62.8723C41.4747 63.4006 41.3943 63.929 41.3675 64.4573C41.2201 67.4028 41.1129 70.3484 40.9655 73.2807C40.9387 73.9411 40.7645 74.5883 40.6439 75.328Z" fill="#D12E2E"/>
<path d="M39.143 79.2762C39.1698 78.51 39.8532 77.8892 40.6036 77.9157C41.2601 77.9421 41.7023 78.4968 41.6755 79.2365C41.6487 80.0026 40.9788 80.6366 40.215 80.597C39.5718 80.5574 39.1162 80.0026 39.143 79.2762Z" fill="#D12E2E"/>
</svg>
